<?xml version="1.0" encoding="UTF-8"?>
<svg version="1.1" xmlns="http://www.w3.org/2000/svg" width="444" height="200">
<path d="M0 0 C2.07644779 0.00851502 4.1501407 -0.0203252 6.22631836 -0.05200195 C13.84223321 -0.09192931 20.03608051 0.45970273 26.64624023 4.44604492 C27.26112305 4.80142334 27.87600586 5.15680176 28.50952148 5.52294922 C30.20874023 6.57104492 30.20874023 6.57104492 32.64624023 8.44604492 C32.64624023 9.10604492 32.64624023 9.76604492 32.64624023 10.44604492 C33.30624023 10.44604492 33.96624023 10.44604492 34.64624023 10.44604492 C34.64624023 11.10604492 34.64624023 11.76604492 34.64624023 12.44604492 C35.85280273 12.78635742 35.85280273 12.78635742 37.08374023 13.13354492 C37.92936523 13.56666992 38.77499023 13.99979492 39.64624023 14.44604492 C40.45874023 17.07104492 40.45874023 17.07104492 40.64624023 19.44604492 C41.30624023 19.44604492 41.96624023 19.44604492 42.64624023 19.44604492 C42.97624023 20.76604492 43.30624023 22.08604492 43.64624023 23.44604492 C44.30624023 23.44604492 44.96624023 23.44604492 45.64624023 23.44604492 C46.80399084 26.91929673 46.71490675 29.8067194 46.64624023 33.44604492 C47.30624023 33.44604492 47.96624023 33.44604492 48.64624023 33.44604492 C48.64624023 34.10604492 48.64624023 34.76604492 48.64624023 35.44604492 C49.35651367 35.72834961 50.06678711 36.0106543 50.79858398 36.30151367 C65.72621142 42.30123224 65.72621142 42.30123224 68.64624023 47.44604492 C68.64624023 48.10604492 68.64624023 48.76604492 68.64624023 49.44604492 C69.63624023 49.77604492 70.62624023 50.10604492 71.64624023 50.44604492 C71.64624023 51.10604492 71.64624023 51.76604492 71.64624023 52.44604492 C72.29077148 52.6806543 72.93530273 52.91526367 73.59936523 53.15698242 C75.64624023 54.44604492 75.64624023 54.44604492 76.25561523 56.61010742 C76.30202148 57.4222168 76.34842773 58.23432617 76.39624023 59.07104492 C76.45295898 59.88831055 76.50967773 60.70557617 76.56811523 61.54760742 C76.60678711 62.48733398 76.60678711 62.48733398 76.64624023 63.44604492 C77.30624023 63.44604492 77.96624023 63.44604492 78.64624023 63.44604492 C80.68468476 70.27400545 80.9955831 78.62235918 77.77124023 85.07104492 C76.42265943 87.21290855 75.0502181 89.34007812 73.64624023 91.44604492 C72.98624023 91.44604492 72.32624023 91.44604492 71.64624023 91.44604492 C71.31624023 92.76604492 70.98624023 94.08604492 70.64624023 95.44604492 C69.98624023 95.44604492 69.32624023 95.44604492 68.64624023 95.44604492 C68.6165918 96.03643555 68.58694336 96.62682617 68.55639648 97.23510742 C67.36602168 100.12674751 65.66946555 100.63810475 62.93432617 101.93212891 C59.69575517 103.48775384 57.35057612 105.01547217 54.64624023 107.44604492 C53.53582876 112.29291206 54.0358048 116.5559263 54.64624023 121.44604492 C54.31624023 121.77604492 53.98624023 122.10604492 53.64624023 122.44604492 C51.30679287 122.15874437 48.97232593 121.82667713 46.64624023 121.44604492 C46.31624023 117.81604492 45.98624023 114.18604492 45.64624023 110.44604492 C27.16624023 110.11604492 8.68624023 109.78604492 -10.35375977 109.44604492 C-10.35375977 111.09604492 -10.35375977 112.74604492 -10.35375977 114.44604492 C-11.01375977 114.44604492 -11.67375977 114.44604492 -12.35375977 114.44604492 C-12.68375977 117.08604492 -13.01375977 119.72604492 -13.35375977 122.44604492 C-15.99375977 122.44604492 -18.63375977 122.44604492 -21.35375977 122.44604492 C-21.02375977 119.14604492 -20.69375977 115.84604492 -20.35375977 112.44604492 C-19.69375977 112.44604492 -19.03375977 112.44604492 -18.35375977 112.44604492 C-18.35375977 111.78604492 -18.35375977 111.12604492 -18.35375977 110.44604492 C-19.20248657 110.43724556 -19.20248657 110.43724556 -20.06835938 110.42826843 C-26.04009965 110.36356461 -32.0113386 110.27896428 -37.98266602 110.18359375 C-40.20134811 110.15065416 -42.42010779 110.12252958 -44.63891602 110.09960938 C-75.05976426 109.77700561 -75.05976426 109.77700561 -87.35375977 104.44604492 C-87.31250977 105.60104492 -87.27125977 106.75604492 -87.22875977 107.94604492 C-87.21288543 112.39085793 -88.13582871 116.18328623 -89.35375977 120.44604492 C-93.54965403 121.61157111 -94.17467913 121.53558524 -98.35375977 119.44604492 C-97.36375977 114.16604492 -96.37375977 108.88604492 -95.35375977 103.44604492 C-92.87875977 102.95104492 -92.87875977 102.95104492 -90.35375977 102.44604492 C-90.35375977 101.78604492 -90.35375977 101.12604492 -90.35375977 100.44604492 C-91.34375977 100.11604492 -92.33375977 99.78604492 -93.35375977 99.44604492 C-93.35375977 98.78604492 -93.35375977 98.12604492 -93.35375977 97.44604492 C-94.34375977 97.11604492 -95.33375977 96.78604492 -96.35375977 96.44604492 C-96.35375977 95.45604492 -96.35375977 94.46604492 -96.35375977 93.44604492 C-97.01375977 93.44604492 -97.67375977 93.44604492 -98.35375977 93.44604492 C-98.68375977 90.14604492 -99.01375977 86.84604492 -99.35375977 83.44604492 C-100.01375977 83.44604492 -100.67375977 83.44604492 -101.35375977 83.44604492 C-103.81630703 76.82794915 -103.54311448 70.44164977 -103.35375977 63.44604492 C-102.69375977 63.44604492 -102.03375977 63.44604492 -101.35375977 63.44604492 C-101.35375977 62.12604492 -101.35375977 60.80604492 -101.35375977 59.44604492 C-100.69375977 59.44604492 -100.03375977 59.44604492 -99.35375977 59.44604492 C-99.06500977 58.53854492 -98.77625977 57.63104492 -98.47875977 56.69604492 C-95.2986007 47.50891873 -88.18701966 44.33736791 -79.79125977 40.00854492 C-76.35375977 38.44604492 -76.35375977 38.44604492 -74.35375977 38.44604492 C-74.02375977 35.80604492 -73.69375977 33.16604492 -73.35375977 30.44604492 C-72.69375977 30.44604492 -72.03375977 30.44604492 -71.35375977 30.44604492 C-71.26094727 29.08479492 -71.26094727 29.08479492 -71.16625977 27.69604492 C-69.96391822 22.88667875 -67.34710793 21.67415643 -63.26782227 19.16088867 C-56.41260548 15.14836417 -50.1713806 13.42145902 -42.22875977 12.82104492 C-34.8869227 11.92782439 -30.54133014 9.71132839 -24.45141602 5.41870117 C-16.44565892 0.32045737 -9.28141308 -0.05800199 0 0 Z " fill="#E4E9EC" transform="translate(230.353759765625,-0.446044921875)"/>
<path d="M0 0 C0.99 0.495 0.99 0.495 2 1 C2.59355614 3.64860427 2.74209269 6.29197322 3 9 C0.36 9.33 -2.28 9.66 -5 10 C-5.103125 10.969375 -5.20625 11.93875 -5.3125 12.9375 C-5.94629879 17.48593839 -7.44755827 21.69417104 -9 26 C-8.01 26.33 -7.02 26.66 -6 27 C-5.938125 26.21625 -5.87625 25.4325 -5.8125 24.625 C-5.544375 23.75875 -5.27625 22.8925 -5 22 C-2.4375 20.6875 -2.4375 20.6875 0 20 C0 19.34 0 18.68 0 18 C10.5447345 12.22488869 22.37208612 13.6189011 34 14 C34 12.35 34 10.7 34 9 C36.475 8.505 36.475 8.505 39 8 C39 7.34 39 6.68 39 6 C40.375 4.375 40.375 4.375 42 3 C42.66 3 43.32 3 44 3 C44.33 2.01 44.66 1.02 45 0 C47.31 0.33 49.62 0.66 52 1 C52 2.32 52 3.64 52 5 C51.34 5 50.68 5 50 5 C50 5.66 50 6.32 50 7 C49.34 7 48.68 7 48 7 C47.67 7.99 47.34 8.98 47 10 C46.34 10 45.68 10 45 10 C45 10.66 45 11.32 45 12 C45.66 12 46.32 12 47 12 C47.103125 13.11375 47.20625 14.2275 47.3125 15.375 C47.539375 16.57125 47.76625 17.7675 48 19 C48.99 19.66 49.98 20.32 51 21 C50.67 23.31 50.34 25.62 50 28 C49.34 28 48.68 28 48 28 C47.505 30.475 47.505 30.475 47 33 C44.3247185 34.03559284 42.54501791 34.1990843 39.83984375 33.2109375 C38.30899343 32.50045939 36.78863263 31.7668115 35.28125 31.0078125 C30.19918873 28.7626553 25.15969791 28.87392666 19.6875 28.9375 C18.94693359 28.94201172 18.20636719 28.94652344 17.44335938 28.95117188 C15.62887101 28.96287825 13.81442466 28.98081102 12 29 C12 29.99 12 30.98 12 32 C14.77371048 32.92457016 16.86526553 33.22578345 19.75390625 33.4296875 C20.69169922 33.50316406 21.62949219 33.57664063 22.59570312 33.65234375 C24.54580248 33.79869749 26.49632871 33.93948919 28.44726562 34.07421875 C36.17538475 34.69499347 43.96667009 35.46190762 50.0625 40.5625 C53.23228736 44.550297 53.3346481 46.89661646 53 52 C51.2332464 57.6928727 48.942638 60.67322442 44 64 C28.21310787 69.84699709 9.58178326 67.34897037 -6 62 C-6.66 62 -7.32 62 -8 62 C-8.33 64.97 -8.66 67.94 -9 71 C-14.75 72.125 -14.75 72.125 -17 71 C-17.125 63.375 -17.125 63.375 -16 60 C-15.34 60 -14.68 60 -14 60 C-14 59.34 -14 58.68 -14 58 C-11.29120665 56.64560332 -8.99066732 56.93498549 -6 57 C-5.67 55.02 -5.34 53.04 -5 51 C-4.34 51 -3.68 51 -3 51 C-3 49.68 -3 48.36 -3 47 C0.71668825 45.61826648 2.83126279 46.42450237 6.4375 47.875 C12.3498106 50.2267675 17.24650761 51.1396632 23.625 51.125 C24.75164062 51.12757813 25.87828125 51.13015625 27.0390625 51.1328125 C30.05788082 51.13259517 30.05788082 51.13259517 33 50 C33 49.34 33 48.68 33 48 C29.34581554 46.34902557 26.32012203 45.70490347 22.32421875 45.5078125 C21.24849609 45.44207031 20.17277344 45.37632812 19.06445312 45.30859375 C16.82524732 45.18685555 14.58564484 45.07219338 12.34570312 44.96484375 C5.59883887 44.53787801 0.7132778 43.72694107 -5 40 C-6 36.75 -6 36.75 -6 34 C-6.99 34 -7.98 34 -9 34 C-9 34.99 -9 35.98 -9 37 C-9.66 37 -10.32 37 -11 37 C-11 38.65 -11 40.3 -11 42 C-11.66 42 -12.32 42 -13 42 C-13.33 43.98 -13.66 45.96 -14 48 C-14.66 48 -15.32 48 -16 48 C-16.33 50.64 -16.66 53.28 -17 56 C-17.66 56 -18.32 56 -19 56 C-19.061875 56.94875 -19.12375 57.8975 -19.1875 58.875 C-20.05184281 65.01308662 -23.14994257 72.00583506 -28 76 C-28.66 76 -29.32 76 -30 76 C-30.495 77.485 -30.495 77.485 -31 79 C-38.03426119 83.6073113 -44.75089527 84.71800718 -53 84 C-54.54906648 80.50515489 -55.32051778 77.49352779 -55.625 73.6875 C-55.69976562 72.80449219 -55.77453125 71.92148438 -55.8515625 71.01171875 C-55.92503906 70.01591797 -55.92503906 70.01591797 -56 69 C-52.84493858 68.06380187 -50.03413498 67.8942877 -46.75 67.9375 C-45.41195312 67.95103516 -45.41195312 67.95103516 -44.046875 67.96484375 C-43.37140625 67.97644531 -42.6959375 67.98804688 -42 68 C-42.2165625 67.32453125 -42.433125 66.6490625 -42.65625 65.953125 C-42.9346875 65.06109375 -43.213125 64.1690625 -43.5 63.25 C-43.91765625 61.92742187 -43.91765625 61.92742187 -44.34375 60.578125 C-45 58 -45 58 -45 54 C-45.66 54 -46.32 54 -47 54 C-47.33 51.69 -47.66 49.38 -48 47 C-48.66 47 -49.32 47 -50 47 C-53 40.5 -53 40.5 -53 36 C-53.66 36 -54.32 36 -55 36 C-55.33 34.02 -55.66 32.04 -56 30 C-59.3 29.67 -62.6 29.34 -66 29 C-66 27.35 -66 25.7 -66 24 C-65.34 24 -64.68 24 -64 24 C-63.01 20.7 -62.02 17.4 -61 14 C-59.02 14 -57.04 14 -55 14 C-55 15.32 -55 16.64 -55 18 C-54.34 18 -53.68 18 -53 18 C-53 18.66 -53 19.32 -53 20 C-53.66 20 -54.32 20 -55 20 C-54.938125 21.175625 -54.938125 21.175625 -54.875 22.375 C-55 25 -55 25 -57 27 C-55.71222656 26.98839844 -54.42445313 26.97679687 -53.09765625 26.96484375 C-51.41927228 26.9554673 -49.74088674 26.94636695 -48.0625 26.9375 C-46.78729492 26.92493164 -46.78729492 26.92493164 -45.48632812 26.91210938 C-44.67744141 26.90888672 -43.86855469 26.90566406 -43.03515625 26.90234375 C-42.2862915 26.89710693 -41.53742676 26.89187012 -40.76586914 26.88647461 C-39 27 -39 27 -38 28 C-37.95936168 29.66617115 -37.957279 31.33388095 -38 33 C-37.34 33 -36.68 33 -36 33 C-35.49440092 34.43554025 -34.9957251 35.8735202 -34.5 37.3125 C-34.08234375 38.51326172 -34.08234375 38.51326172 -33.65625 39.73828125 C-33 42 -33 42 -33 45 C-32.01 45 -31.02 45 -30 45 C-30 43.68 -30 42.36 -30 41 C-29.34 41 -28.68 41 -28 41 C-27.95101562 40.31292969 -27.90203125 39.62585938 -27.8515625 38.91796875 C-27.77679688 38.01691406 -27.70203125 37.11585938 -27.625 36.1875 C-27.55539063 35.29417969 -27.48578125 34.40085938 -27.4140625 33.48046875 C-27 31 -27 31 -25 28 C-21.875 27.3125 -21.875 27.3125 -19 27 C-19 26.34 -19 25.68 -19 25 C-18.34 25 -17.68 25 -17 25 C-16.67 21.04 -16.34 17.08 -16 13 C-15.34 13 -14.68 13 -14 13 C-13.9175 12.21625 -13.835 11.4325 -13.75 10.625 C-13.5025 9.75875 -13.255 8.8925 -13 8 C-11.66666667 7.33333333 -10.33333333 6.66666667 -9 6 C-8.34444881 3.47266765 -8.34444881 3.47266765 -8 1 C-5.26094655 -0.36952673 -3.02912668 -0.12621361 0 0 Z " fill="#F2E9E9" transform="translate(190,110)"/>
<path d="M0 0 C1.28132813 0.00902344 2.56265625 0.01804688 3.8828125 0.02734375 C4.87023437 0.03894531 5.85765625 0.05054688 6.875 0.0625 C7.205 1.0525 7.535 2.0425 7.875 3.0625 C8.535 3.0625 9.195 3.0625 9.875 3.0625 C9.875 3.7225 9.875 4.3825 9.875 5.0625 C10.535 5.0625 11.195 5.0625 11.875 5.0625 C11.875 4.4025 11.875 3.7425 11.875 3.0625 C16.96570484 -0.07024144 21.06467913 -0.56041795 26.875 0.0625 C30.34208846 1.04232935 32.62240824 2.21712093 34.875 5.0625 C34.875 5.7225 34.875 6.3825 34.875 7.0625 C35.535 7.0625 36.195 7.0625 36.875 7.0625 C37.205 6.0725 37.535 5.0825 37.875 4.0625 C42.39858657 -0.10396132 46.22823078 -0.55117984 52.3046875 -0.3359375 C55.76962132 0.2011799 57.6121392 1.40949079 59.875 4.0625 C59.875 4.7225 59.875 5.3825 59.875 6.0625 C60.535 6.0625 61.195 6.0625 61.875 6.0625 C63.36179725 9.03609449 62.98612605 11.72549179 62.97265625 15.0390625 C62.9712413 15.72431 62.96982635 16.4095575 62.96836853 17.11557007 C62.96276675 19.30625761 62.95021406 21.4968433 62.9375 23.6875 C62.93248522 25.17187352 62.92792228 26.65624865 62.92382812 28.140625 C62.91364721 31.7813209 62.89407237 35.42179631 62.875 39.0625 C56.605 39.0625 50.335 39.0625 43.875 39.0625 C43.875 38.4025 43.875 37.7425 43.875 37.0625 C44.535 37.0625 45.195 37.0625 45.875 37.0625 C45.875 30.4625 45.875 23.8625 45.875 17.0625 C45.215 17.0625 44.555 17.0625 43.875 17.0625 C43.38 16.0725 43.38 16.0725 42.875 15.0625 C41.225 15.0625 39.575 15.0625 37.875 15.0625 C37.875 22.9825 37.875 30.9025 37.875 39.0625 C31.605 39.0625 25.335 39.0625 18.875 39.0625 C18.38 26.6875 18.38 26.6875 17.875 14.0625 C16.225 14.0625 14.575 14.0625 12.875 14.0625 C12.730625 14.84625 12.58625 15.63 12.4375 16.4375 C11.875 19.0625 11.875 19.0625 10.875 21.0625 C10.79191362 22.43798156 10.76763984 23.81735796 10.77734375 25.1953125 C10.78217773 26.40380859 10.78217773 26.40380859 10.78710938 27.63671875 C10.79548828 28.47847656 10.80386719 29.32023437 10.8125 30.1875 C10.81701172 31.03699219 10.82152344 31.88648438 10.82617188 32.76171875 C10.83797126 34.86200909 10.85590694 36.9622633 10.875 39.0625 C7.91642591 39.11629226 4.95882279 39.15607093 2 39.1875 C0.73736328 39.21263672 0.73736328 39.21263672 -0.55078125 39.23828125 C-1.35644531 39.24472656 -2.16210938 39.25117188 -2.9921875 39.2578125 C-3.73581543 39.26828613 -4.47944336 39.27875977 -5.24560547 39.28955078 C-7.125 39.0625 -7.125 39.0625 -9.125 37.0625 C-8.465 37.0625 -7.805 37.0625 -7.125 37.0625 C-7.125 26.8325 -7.125 16.6025 -7.125 6.0625 C-7.785 6.0625 -8.445 6.0625 -9.125 6.0625 C-9.125 4.4125 -9.125 2.7625 -9.125 1.0625 C-6.12186252 -0.43906874 -3.33432478 -0.03031204 0 0 Z " fill="#F6EDED" transform="translate(380.125,136.9375)"/>
<path d="M0 0 C1.05676186 -0.00143509 1.05676186 -0.00143509 2.13487244 -0.00289917 C3.62857146 -0.00357958 5.12227345 -0.00173496 6.6159668 0.00244141 C8.86969927 0.00773581 11.12322731 0.00252096 13.37695312 -0.00390625 C34.54146816 -0.01637529 34.54146816 -0.01637529 42.83984375 4.1328125 C42.83984375 4.7928125 42.83984375 5.4528125 42.83984375 6.1328125 C43.82984375 6.4628125 44.81984375 6.7928125 45.83984375 7.1328125 C49.81087746 14.36576676 48.77164313 21.13954554 47.83984375 29.1328125 C47.17984375 29.1328125 46.51984375 29.1328125 45.83984375 29.1328125 C45.79859375 29.7103125 45.75734375 30.2878125 45.71484375 30.8828125 C44.33376535 34.43415696 42.1531984 35.35780108 38.83984375 37.1328125 C32.36107649 39.19153195 26.02075331 39.38644687 19.27734375 39.2578125 C18.36404297 39.24878906 17.45074219 39.23976562 16.50976562 39.23046875 C14.28634194 39.20718683 12.06305573 39.1713282 9.83984375 39.1328125 C9.83984375 43.0928125 9.83984375 47.0528125 9.83984375 51.1328125 C3.56984375 51.1328125 -2.70015625 51.1328125 -9.16015625 51.1328125 C-10.36902916 48.71506669 -10.28074968 47.19950186 -10.27368164 44.49951172 C-10.27360611 43.53866669 -10.27353058 42.57782166 -10.27345276 41.58786011 C-10.26829147 40.54824127 -10.26313019 39.50862244 -10.2578125 38.4375 C-10.25639755 37.37491974 -10.2549826 36.31233948 -10.25352478 35.21755981 C-10.24791459 31.81428241 -10.23536034 28.41107012 -10.22265625 25.0078125 C-10.21764256 22.70442803 -10.21307943 20.40104253 -10.20898438 18.09765625 C-10.19794185 12.44268601 -10.18119377 6.78775391 -10.16015625 1.1328125 C-6.60359136 -0.05270913 -3.75332323 0.00324863 0 0 Z M9.83984375 15.1328125 C9.83984375 18.4328125 9.83984375 21.7328125 9.83984375 25.1328125 C20.5389527 25.53414464 20.5389527 25.53414464 30.83984375 23.1328125 C30.83984375 21.1528125 30.83984375 19.1728125 30.83984375 17.1328125 C30.17984375 17.1328125 29.51984375 17.1328125 28.83984375 17.1328125 C28.83984375 16.4728125 28.83984375 15.8128125 28.83984375 15.1328125 C22.56984375 15.1328125 16.29984375 15.1328125 9.83984375 15.1328125 Z " fill="#EDE4E4" transform="translate(11.16015625,124.8671875)"/>
<path d="M0 0 C1.98 0 3.96 0 6 0 C6 1.32 6 2.64 6 4 C6.66 4 7.32 4 8 4 C8 4.66 8 5.32 8 6 C7.34 6 6.68 6 6 6 C6.061875 7.175625 6.061875 7.175625 6.125 8.375 C6 11 6 11 4 13 C5.28777344 12.98839844 6.57554687 12.97679687 7.90234375 12.96484375 C9.58072772 12.9554673 11.25911326 12.94636695 12.9375 12.9375 C14.21270508 12.92493164 14.21270508 12.92493164 15.51367188 12.91210938 C16.32255859 12.90888672 17.13144531 12.90566406 17.96484375 12.90234375 C18.7137085 12.89710693 19.46257324 12.89187012 20.23413086 12.88647461 C22 13 22 13 23 14 C23.04063832 15.66617115 23.042721 17.33388095 23 19 C23.66 19 24.32 19 25 19 C25.50559908 20.43554025 26.0042749 21.8735202 26.5 23.3125 C26.7784375 24.11300781 27.056875 24.91351563 27.34375 25.73828125 C28 28 28 28 28 31 C28.99 31 29.98 31 31 31 C31 29.68 31 28.36 31 27 C31.66 27 32.32 27 33 27 C33.04898438 26.31292969 33.09796875 25.62585938 33.1484375 24.91796875 C33.22320312 24.01691406 33.29796875 23.11585938 33.375 22.1875 C33.44460937 21.29417969 33.51421875 20.40085938 33.5859375 19.48046875 C34 17 34 17 36 14 C38 13.1875 38 13.1875 40 13 C40.66 13.66 41.32 14.32 42 15 C41.625 17.125 41.625 17.125 41 19 C43.49552484 18.21869929 43.49552484 18.21869929 46 17 C46.495 15.515 46.495 15.515 47 14 C48.32 14 49.64 14 51 14 C50.38785605 18.72743936 49.04697888 22.90914052 47.26953125 27.3046875 C46.99662766 27.98749786 46.72372406 28.67030823 46.44255066 29.37380981 C45.86490852 30.81219182 45.28398092 32.2492583 44.69995117 33.68505859 C43.81994979 35.85661634 42.95939248 38.03521599 42.09960938 40.21484375 C37.84285463 50.83467942 32.72884398 61.89139671 21.80078125 67.03515625 C17.07289803 68.76095403 13.00942015 69.31975022 8 69 C6.20724134 65.88089144 5.65709282 63.32317572 5.375 59.75 C5.30023438 58.85796875 5.22546875 57.9659375 5.1484375 57.046875 C5.09945312 56.37140625 5.05046875 55.6959375 5 55 C8.15506142 54.06380187 10.96586502 53.8942877 14.25 53.9375 C15.14203125 53.94652344 16.0340625 53.95554688 16.953125 53.96484375 C17.62859375 53.97644531 18.3040625 53.98804688 19 54 C18.7834375 53.32453125 18.566875 52.6490625 18.34375 51.953125 C18.0653125 51.06109375 17.786875 50.1690625 17.5 49.25 C17.08234375 47.92742187 17.08234375 47.92742187 16.65625 46.578125 C16 44 16 44 16 40 C15.34 40 14.68 40 14 40 C13.67 37.69 13.34 35.38 13 33 C12.34 33 11.68 33 11 33 C8 26.5 8 26.5 8 22 C7.34 22 6.68 22 6 22 C5.67 20.02 5.34 18.04 5 16 C1.7 15.67 -1.6 15.34 -5 15 C-5 13.35 -5 11.7 -5 10 C-4.34 10 -3.68 10 -3 10 C-2.01 6.7 -1.02 3.4 0 0 Z " fill="#F5EDED" transform="translate(129,124)"/>
<path d="M0 0 C0 0.66 0 1.32 0 2 C0.66 2 1.32 2 2 2 C4.80512399 7.5439852 5.3935213 11.77270879 5.1875 17.9375 C5.16719727 19.10635742 5.16719727 19.10635742 5.14648438 20.29882812 C5.11150224 22.19952404 5.05770959 24.09985834 5 26 C5.66 26 6.32 26 7 26 C7 28.64 7 31.28 7 34 C4.41554227 34.1081866 1.83562648 34.18737237 -0.75 34.25 C-1.47960937 34.28351563 -2.20921875 34.31703125 -2.9609375 34.3515625 C-8.49179903 34.45212362 -8.49179903 34.45212362 -11.265625 31.984375 C-11.83796875 31.32953125 -12.4103125 30.6746875 -13 30 C-14.32 30 -15.64 30 -17 30 C-17 30.66 -17 31.32 -17 32 C-22.81761482 35.60894219 -30.9696077 34.90425468 -37.4375 33.453125 C-39.3125 32.625 -39.3125 32.625 -42 30 C-43.31209583 25.38080882 -43.64353189 20.5720069 -42 16 C-38.94605598 13.77144625 -36.71511029 12.92877757 -33 12 C-35.31 10.35 -37.62 8.7 -40 7 C-39.796875 4.703125 -39.796875 4.703125 -39 2 C-36.890625 0.234375 -36.890625 0.234375 -34.25 -1.25 C-32.95835938 -2.00023437 -32.95835938 -2.00023437 -31.640625 -2.765625 C-21.55275336 -7.4812573 -9.09732967 -6.06488645 0 0 Z M-25 11 C-25 11.33 -25 11.66 -25 12 C-21.7 11.67 -18.4 11.34 -15 11 C-15 10.01 -15 9.02 -15 8 C-19.25642352 7.6351637 -21.53555505 8.52539646 -25 11 Z M-25 19 C-25 19.99 -25 20.98 -25 22 C-19.6092003 21.76995266 -19.6092003 21.76995266 -15 19.4375 C-14.67 18.963125 -14.34 18.48875 -14 18 C-18.00200378 16.39919849 -21.04556236 17.70720308 -25 19 Z " fill="#F2EAEA" transform="translate(127,142)"/>
<path d="M0 0 C2.5625 2.5 2.5625 2.5 4 5 C4.35707031 5.55171875 4.71414063 6.1034375 5.08203125 6.671875 C6.3946559 10.00091453 6.21146885 13.23138281 6.125 16.75 C6.11597656 17.44738281 6.10695313 18.14476562 6.09765625 18.86328125 C6.07419888 20.57566958 6.03833104 22.28788004 6 24 C5.34 24 4.68 24 4 24 C3.9071875 25.11375 3.9071875 25.11375 3.8125 26.25 C2.7319279 29.90732095 1.14788003 30.92526089 -2 33 C-10.92970174 37.35036751 -21.69498893 36.99452174 -31 34 C-33.73244516 32.88962434 -35.568769 31.77277261 -38 30 C-38.9375 27.25 -38.9375 27.25 -39 25 C-39.66 25 -40.32 25 -41 25 C-42.29561672 18.68386851 -42.78161678 12.24979855 -41 6 C-40.34 6 -39.68 6 -39 6 C-38.91234375 5.39542969 -38.8246875 4.79085937 -38.734375 4.16796875 C-37.795192 1.39538065 -36.73630621 0.79400201 -34.25 -0.6875 C-33.57453125 -1.10386719 -32.8990625 -1.52023438 -32.203125 -1.94921875 C-22.52569537 -6.56487224 -9.18642361 -5.00635784 0 0 Z M-24 10 C-24.96048032 12.97921442 -25.17728184 15.88094758 -25 19 C-23.62283334 21.71107713 -23.62283334 21.71107713 -21 23 C-18.04308291 23.75015195 -18.04308291 23.75015195 -15 23 C-11.91666667 21.08333333 -11.91666667 21.08333333 -10 18 C-10 14.45638757 -10.34149956 12.13408409 -12.125 9.0625 C-16.3044725 6.69413225 -20.18465619 7.45643746 -24 10 Z " fill="#F5ECEC" transform="translate(323,141)"/>
<path d="M0 0 C2.00720923 0.28674418 4.0085944 0.61866701 6 1 C6.36923077 7.52307692 6.36923077 7.52307692 4.5 9.9375 C4.005 10.288125 3.51 10.63875 3 11 C3.66 11.33 4.32 11.66 5 12 C5 12.99 5 13.98 5 15 C4.34 15 3.68 15 3 15 C2.67 15.99 2.34 16.98 2 18 C1.34 18.33 0.68 18.66 0 19 C3.63 19.33 7.26 19.66 11 20 C11 23.96 11 27.92 11 32 C6.68380697 32.90338924 4.49202386 32.89840477 0 32 C0 35.96 0 39.92 0 44 C4.95 45.485 4.95 45.485 10 47 C9.67 50.63 9.34 54.26 9 58 C1.26059773 60.57980076 -7.1292444 59.30720002 -14.375 55.875 C-16.96398808 52.88770607 -16.74501531 49.88851657 -17 46 C-17.66 46 -18.32 46 -19 46 C-19 42.04 -19 38.08 -19 34 C-20.98 33.34 -22.96 32.68 -25 32 C-25.34703629 28.27257322 -25.53444601 24.71439979 -25 21 C-20.72093023 17 -20.72093023 17 -17 17 C-16.34 15.35 -15.68 13.7 -15 12 C-10.38 12 -5.76 12 -1 12 C-1 11.34 -1 10.68 -1 10 C-1.66 10 -2.32 10 -3 10 C-3 8.68 -3 7.36 -3 6 C-2.34 6 -1.68 6 -1 6 C-1.020625 5.195625 -1.04125 4.39125 -1.0625 3.5625 C-1 1 -1 1 0 0 Z " fill="#EAE2E2" transform="translate(268,118)"/>
<path d="M0 0 C0.804375 -0.00128906 1.60875 -0.00257812 2.4375 -0.00390625 C3.283125 -0.00003906 4.12875 0.00382812 5 0.0078125 C6.2684375 0.00201172 6.2684375 0.00201172 7.5625 -0.00390625 C8.366875 -0.00261719 9.17125 -0.00132813 10 0 C10.7425 0.00112793 11.485 0.00225586 12.25 0.00341797 C14 0.1328125 14 0.1328125 15 1.1328125 C15.09353163 2.82083235 15.11744791 4.51276457 15.11352539 6.20336914 C15.11344986 7.28441422 15.11337433 8.36545929 15.11329651 9.47926331 C15.10813522 10.6552861 15.10297394 11.8313089 15.09765625 13.04296875 C15.0962413 14.24014023 15.09482635 15.43731171 15.09336853 16.67076111 C15.08774979 20.51230316 15.07519411 24.35378793 15.0625 28.1953125 C15.05748741 30.79231687 15.05292409 33.38932215 15.04882812 35.98632812 C15.03777427 42.36851182 15.02049708 48.75065243 15 55.1328125 C8.4 55.1328125 1.8 55.1328125 -5 55.1328125 C-5.02463993 47.46069577 -5.04283123 39.78860185 -5.05493164 32.11645508 C-5.05997377 29.50414631 -5.06680725 26.89184039 -5.07543945 24.27954102 C-5.08751036 20.53400982 -5.09322935 16.78851578 -5.09765625 13.04296875 C-5.10281754 11.86694595 -5.10797882 10.69092316 -5.11329651 9.47926331 C-5.11340981 7.85769569 -5.11340981 7.85769569 -5.11352539 6.20336914 C-5.115746 5.24628555 -5.11796661 4.28920197 -5.12025452 3.30311584 C-4.91173117 -0.46022649 -3.3426582 0.00507782 0 0 Z " fill="#FBF2F2" transform="translate(67,120.8671875)"/>
<path d="M0 0 C2.53541298 0.09086451 5.03554784 0.2370945 7.5625 0.4375 C8.62887695 0.51581055 8.62887695 0.51581055 9.71679688 0.59570312 C11.47821999 0.72574107 13.23916173 0.86226897 15 1 C15.12375 1.639375 15.2475 2.27875 15.375 2.9375 C15.58125 3.618125 15.7875 4.29875 16 5 C16.66 5.33 17.32 5.66 18 6 C18 5.34 18 4.68 18 4 C23.5585994 0.68849398 27.51229092 -0.56909729 34 0 C35 1 35 1 35.125 4.625 C35.08304465 8.49887722 34.63639059 12.18165644 34 16 C29.72759296 17.16520192 26.33579164 16.72263194 22 16 C21.01 16 20.02 16 19 16 C18.855625 17.0725 18.71125 18.145 18.5625 19.25 C18 23 18 23 17.375 25.0625 C16.83729094 27.84066348 17.50114905 30.22860583 18 33 C18 34.98 18 36.96 18 39 C11.73 39 5.46 39 -1 39 C-1.02290785 33.60647411 -1.04283526 28.21311579 -1.05493164 22.81958008 C-1.05997231 20.98331125 -1.06680477 19.14704646 -1.07543945 17.31079102 C-1.08751672 14.67723599 -1.09323081 12.04373384 -1.09765625 9.41015625 C-1.10281754 8.58411392 -1.10797882 7.75807159 -1.11329651 6.90699768 C-1.11349205 4.93763632 -1.06204152 2.96838386 -1 1 C-0.67 0.67 -0.34 0.34 0 0 Z " fill="#F6EDED" transform="translate(333,137)"/>
<path d="M0 0 C0.66 0.33 1.32 0.66 2 1 C2.59355614 3.64860427 2.74209269 6.29197322 3 9 C0.36 9.33 -2.28 9.66 -5 10 C-5.103125 10.969375 -5.20625 11.93875 -5.3125 12.9375 C-5.94629879 17.48593839 -7.44755827 21.69417104 -9 26 C-8.34 26.33 -7.68 26.66 -7 27 C-7 29.31 -7 31.62 -7 34 C-7.66 34 -8.32 34 -9 34 C-9 34.99 -9 35.98 -9 37 C-9.66 37 -10.32 37 -11 37 C-11 38.65 -11 40.3 -11 42 C-11.66 42 -12.32 42 -13 42 C-13.33 43.98 -13.66 45.96 -14 48 C-14.66 48 -15.32 48 -16 48 C-16.33 50.64 -16.66 53.28 -17 56 C-17.66 56 -18.32 56 -19 56 C-19.061875 56.94875 -19.12375 57.8975 -19.1875 58.875 C-20.05184281 65.01308662 -23.14994257 72.00583506 -28 76 C-28.66 76 -29.32 76 -30 76 C-30.33 76.99 -30.66 77.98 -31 79 C-38.03426119 83.6073113 -44.75089527 84.71800718 -53 84 C-53 83.67 -53 83.34 -53 83 C-52.29875 82.90203125 -51.5975 82.8040625 -50.875 82.703125 C-41.41737483 81.21252103 -34.78063782 78.98886581 -28.68725586 71.33300781 C-22.5916645 62.90449225 -19.35637892 52.52422913 -15.6875 42.875 C-15.13262433 41.42690589 -14.57728896 39.97898783 -14.02148438 38.53125 C-12.67568965 35.02283732 -11.33610881 31.51211216 -10 28 C-11.32 28 -12.64 28 -14 28 C-14.33 29.32 -14.66 30.64 -15 32 C-17.475 32.495 -17.475 32.495 -20 33 C-20.495 30.03 -20.495 30.03 -21 27 C-20.34 27 -19.68 27 -19 27 C-19 26.34 -19 25.68 -19 25 C-18.34 25 -17.68 25 -17 25 C-16.67 21.04 -16.34 17.08 -16 13 C-15.34 13 -14.68 13 -14 13 C-13.9175 12.21625 -13.835 11.4325 -13.75 10.625 C-13.5025 9.75875 -13.255 8.8925 -13 8 C-11.66666667 7.33333333 -10.33333333 6.66666667 -9 6 C-8.34444881 3.47266765 -8.34444881 3.47266765 -8 1 C-5.26094655 -0.36952673 -3.02912668 -0.12621361 0 0 Z " fill="#B9B8B8" transform="translate(190,110)"/>
<path d="M0 0 C-2.11446657 3.17169986 -3.85378572 4.0342058 -7.11474609 5.81298828 C-10.35922052 7.85580551 -12.77131358 10.59773229 -15.3125 13.4375 C-16.09850586 14.27764648 -16.09850586 14.27764648 -16.90039062 15.13476562 C-19.78444293 18.29946835 -21.51373047 20.93801094 -23 25 C-24.37098733 25.93628403 -25.74956952 26.86378925 -27.16796875 27.7265625 C-34.70750096 32.96726079 -40.47306318 40.78636857 -46 48 C-47.06528748 45.26980214 -47.07998186 44.20701188 -46.00390625 41.421875 C-45.52824219 40.54015625 -45.05257812 39.6584375 -44.5625 38.75 C-44.08941406 37.85796875 -43.61632812 36.9659375 -43.12890625 36.046875 C-42.75636719 35.37140625 -42.38382813 34.6959375 -42 34 C-45.21203935 36.49825283 -48.17493137 39.0702992 -51 42 C-48.9075352 35.7226056 -45.32216625 32.93316552 -39.5625 29.9375 C-36.74505214 28.46020119 -33.98384174 26.99000831 -31.27734375 25.31640625 C-29 24 -29 24 -27 24 C-26.67 21.36 -26.34 18.72 -26 16 C-25.34 16 -24.68 16 -24 16 C-23.9071875 14.63875 -23.9071875 14.63875 -23.8125 13.25 C-22.61015846 8.44063383 -19.99334817 7.22811151 -15.9140625 4.71484375 C-4.23840409 -2.11920204 -4.23840409 -2.11920204 0 0 Z " fill="#C5CFD7" transform="translate(183,14)"/>
<path d="M0 0 C2.31 0.33 4.62 0.66 7 1 C7 2.32 7 3.64 7 5 C6.34 5 5.68 5 5 5 C5 5.66 5 6.32 5 7 C4.34 7 3.68 7 3 7 C2.67 7.99 2.34 8.98 2 10 C1.34 10 0.68 10 0 10 C0 10.66 0 11.32 0 12 C0.66 12 1.32 12 2 12 C3.125 16.75 3.125 16.75 2 19 C1.01 19.33 0.02 19.66 -1 20 C-1.680625 21.2684375 -1.680625 21.2684375 -2.375 22.5625 C-2.91125 23.366875 -3.4475 24.17125 -4 25 C-6.6875 25.3125 -6.6875 25.3125 -9 25 C-8.33333333 21.66666667 -7.66666667 18.33333333 -7 15 C-8.32 14.67 -9.64 14.34 -11 14 C-11 12.35 -11 10.7 -11 9 C-9.35 8.67 -7.7 8.34 -6 8 C-6 7.34 -6 6.68 -6 6 C-4.625 4.375 -4.625 4.375 -3 3 C-2.34 3 -1.68 3 -1 3 C-0.67 2.01 -0.34 1.02 0 0 Z " fill="#A7A6A6" transform="translate(235,110)"/>
<path d="M0 0 C0.71054157 0.01281384 1.42108315 0.02562767 2.15315628 0.0388298 C10.89409426 0.19787808 19.63467808 0.37243658 28.375 0.5625 C28.045 1.2225 27.715 1.8825 27.375 2.5625 C8.895 2.2325 -9.585 1.9025 -28.625 1.5625 C-28.625 3.2125 -28.625 4.8625 -28.625 6.5625 C-29.285 6.5625 -29.945 6.5625 -30.625 6.5625 C-30.955 9.2025 -31.285 11.8425 -31.625 14.5625 C-34.265 14.5625 -36.905 14.5625 -39.625 14.5625 C-39.295 11.2625 -38.965 7.9625 -38.625 4.5625 C-37.965 4.5625 -37.305 4.5625 -36.625 4.5625 C-36.625 3.9025 -36.625 3.2425 -36.625 2.5625 C-52.465 2.2325 -68.305 1.9025 -84.625 1.5625 C-84.625 1.2325 -84.625 0.9025 -84.625 0.5625 C-56.39743874 -0.2840389 -28.23244747 -0.50958005 0 0 Z " fill="#6D6D6D" transform="translate(248.625,107.4375)"/>
<path d="M0 0 C1.45701743 0.01507259 2.91404993 0.02875645 4.37109375 0.04101562 C7.91437925 0.07382097 11.45709171 0.12546093 15 0.1875 C12.77949944 2.40800056 12.0402186 2.76524742 9 3.1875 C6 2.6875 6 2.6875 3 2.1875 C-0.34034924 2.00249604 -3.67010898 1.83414826 -7 2.1875 C-7.66 2.8475 -8.32 3.5075 -9 4.1875 C-12.625 4.3125 -12.625 4.3125 -16 4.1875 C-16 4.8475 -16 5.5075 -16 6.1875 C-16.73605469 6.42984375 -17.47210938 6.6721875 -18.23046875 6.921875 C-25.83573235 9.35098961 -25.83573235 9.35098961 -32 14.1875 C-32.41870553 16.85678121 -32.41870553 16.85678121 -32 19.1875 C-38.75 17.4375 -38.75 17.4375 -41 15.1875 C-41 14.1975 -41 13.2075 -41 12.1875 C-40.05125 11.81625 -39.1025 11.445 -38.125 11.0625 C-34.06276266 9.33912658 -30.43132462 7.06501028 -26.72265625 4.6875 C-17.7807848 -0.2388682 -9.9297789 -0.17912807 0 0 Z " fill="#D5DDE2" transform="translate(233,-0.1875)"/>
<path d="M0 0 C1.953125 0.7109375 1.953125 0.7109375 4 2 C4.609375 4.1640625 4.609375 4.1640625 4.75 6.625 C4.80671875 7.44226562 4.8634375 8.25953125 4.921875 9.1015625 C4.94765625 9.72804688 4.9734375 10.35453125 5 11 C5.66 11 6.32 11 7 11 C9.03844453 17.82796053 9.34934287 26.17631426 6.125 32.625 C4.7764192 34.76686363 3.40397787 36.8940332 2 39 C1.34 39 0.68 39 0 39 C-0.33 40.32 -0.66 41.64 -1 43 C-1.66 43 -2.32 43 -3 43 C-3.04447266 43.88558594 -3.04447266 43.88558594 -3.08984375 44.7890625 C-4.28021856 47.68070259 -5.97677468 48.19205982 -8.71191406 49.48608398 C-11.95048507 51.04170892 -14.29566411 52.56942725 -17 55 C-18.11041147 59.84686714 -17.61043543 64.10988137 -17 69 C-18 70 -18 70 -20.5625 70.0625 C-21.366875 70.041875 -22.17125 70.02125 -23 70 C-22.01 69.01 -22.01 69.01 -21 68 C-20.85088589 65.71167189 -20.77860295 63.41800293 -20.75 61.125 C-20.35579995 54.34752554 -20.35579995 54.34752554 -17.3125 51.375 C-15.6728125 50.694375 -15.6728125 50.694375 -14 50 C-12.9275 49.2575 -11.855 48.515 -10.75 47.75 C-8 46 -8 46 -6 46 C-5.61328125 45.17242187 -5.61328125 45.17242187 -5.21875 44.328125 C-3.82282788 41.66155582 -2.18252976 39.24527719 -0.5 36.75 C4.80598665 28.39307103 5.88829343 21.80694332 4 12 C3.36206594 10.65268327 2.69626452 9.31811909 2 8 C1.21769702 5.35369115 0.62758388 2.68964519 0 0 Z " fill="#0A0B0B" transform="translate(302,52)"/>
<path d="M0 0 C0.66 0 1.32 0 2 0 C2 2.31 2 4.62 2 7 C1.34 7 0.68 7 0 7 C0 7.99 0 8.98 0 10 C-0.66 10 -1.32 10 -2 10 C-2 11.65 -2 13.3 -2 15 C-2.66 15 -3.32 15 -4 15 C-4.33 16.98 -4.66 18.96 -5 21 C-5.66 21 -6.32 21 -7 21 C-7.33 23.64 -7.66 26.28 -8 29 C-8.66 29 -9.32 29 -10 29 C-10.0928125 30.423125 -10.0928125 30.423125 -10.1875 31.875 C-11.05184281 38.01308662 -14.14994257 45.00583506 -19 49 C-19.66 49 -20.32 49 -21 49 C-21.33 49.99 -21.66 50.98 -22 52 C-29.03426119 56.6073113 -35.75089527 57.71800718 -44 57 C-44 56.67 -44 56.34 -44 56 C-43.29875 55.90203125 -42.5975 55.8040625 -41.875 55.703125 C-32.41649111 54.21238175 -25.78459312 51.98796063 -19.6875 44.33544922 C-13.71260898 36.06637984 -10.45697685 25.93470816 -6.75 16.5 C-5.93899733 14.4474505 -5.12674512 12.39540157 -4.31378174 10.34362793 C-3.58558382 8.50403715 -2.8605731 6.66318566 -2.13574219 4.82226562 C-1 2 -1 2 0 0 Z " fill="#101010" transform="translate(181,137)"/>
<path d="M0 0 C0.99 0.33 1.98 0.66 3 1 C3 18.82 3 36.64 3 55 C-3.6 55 -10.2 55 -17 55 C-16.67 54.01 -16.34 53.02 -16 52 C-16 52.66 -16 53.32 -16 54 C-10.72 54 -5.44 54 0 54 C0 36.18 0 18.36 0 0 Z " fill="#000000" transform="translate(79,121)"/>
<path d="M0 0 C1.98 0.99 3.96 1.98 6 3 C5.01 3.33 4.02 3.66 3 4 C3.04125 5.155 3.0825 6.31 3.125 7.5 C3.14087433 11.94481301 2.21793105 15.73724131 1 20 C-3.19589427 21.16552619 -3.82091936 21.08954032 -8 19 C-7.01 13.72 -6.02 8.44 -5 3 C-3.35 2.67 -1.7 2.34 0 2 C0 1.34 0 0.68 0 0 Z " fill="#B0B0B0" transform="translate(140,100)"/>
<path d="M0 0 C1.60355101 3.50776784 2.22036864 6.14354879 2 10 C1.34 10 0.68 10 0 10 C-0.33 12.31 -0.66 14.62 -1 17 C-1.66 17 -2.32 17 -3 17 C-3.33 17.99 -3.66 18.98 -4 20 C-5.65 20 -7.3 20 -9 20 C-9.95024979 16.30458414 -9.95024979 13.69541586 -9 10 C-8.34 10 -7.68 10 -7 10 C-6.95101562 9.36191406 -6.90203125 8.72382812 -6.8515625 8.06640625 C-6.77679688 7.24011719 -6.70203125 6.41382812 -6.625 5.5625 C-6.55539063 4.73878906 -6.48578125 3.91507812 -6.4140625 3.06640625 C-6.27742187 2.38449219 -6.14078125 1.70257813 -6 1 C-4 0 -4 0 0 0 Z " fill="#B5B5B5" transform="translate(152,108)"/>
<path d="M0 0 C0.66 1.32 1.32 2.64 2 4 C1.53851563 4.37769531 1.07703125 4.75539063 0.6015625 5.14453125 C-4.61342102 9.54531774 -9.17373542 14.35004927 -13.703125 19.44921875 C-15.73825274 21.7093181 -17.82772347 23.87256404 -20 26 C-19.23510329 20.95168169 -17.27247598 16.54495196 -15 12 C-18.21203935 14.49825283 -21.17493137 17.0702992 -24 20 C-21.9075352 13.7226056 -18.32216625 10.93316552 -12.5625 7.9375 C-9.74505214 6.46020119 -6.98384174 4.99000831 -4.27734375 3.31640625 C-2 2 -2 2 0 2 C0 1.34 0 0.68 0 0 Z " fill="#DAE1E5" transform="translate(156,36)"/>
<path d="M0 0 C0.66 0.33 1.32 0.66 2 1 C-0.03339648 4.05009472 -0.84346689 4.6730604 -4 6.1875 C-4.70125 6.53167969 -5.4025 6.87585937 -6.125 7.23046875 C-8 8 -8 8 -10 8 C-10 8.66 -10 9.32 -10 10 C-12.5625 12.1875 -12.5625 12.1875 -16 14 C-18.34190664 13.73348762 -20.67543863 13.38983327 -23 13 C-31.67167899 12.46078245 -39.25485501 12.23337617 -47.1796875 16.22265625 C-47.78039062 16.47917969 -48.38109375 16.73570313 -49 17 C-49.66 16.67 -50.32 16.34 -51 16 C-44.82203503 10.40121924 -38.91128523 8.63712161 -30.703125 8.80078125 C-28 9 -28 9 -25.046875 9.48046875 C-19.00673631 10.38648955 -15.69890922 10.38401606 -10.625 6.75 C-9.07808582 5.50649985 -7.53586889 4.25711689 -6 3 C-4.00311596 1.75712612 -2.19222764 0.87689106 0 0 Z " fill="#D7DEE2" transform="translate(246,37)"/>
<path d="M0 0 C2.4375 0.6875 2.4375 0.6875 5 2 C5.8125 4.625 5.8125 4.625 6 7 C6.66 7 7.32 7 8 7 C8.33 8.32 8.66 9.64 9 11 C9.66 11 10.32 11 11 11 C12.1577506 14.47325181 12.06866652 17.36067448 12 21 C12.66 21 13.32 21 14 21 C14 21.66 14 22.32 14 23 C14.99 23.33 15.98 23.66 17 24 C16.67 24.66 16.34 25.32 16 26 C15.01 26 14.02 26 13 26 C13 24.68 13 23.36 13 22 C11.35 22.33 9.7 22.66 8 23 C8 22.01 8 21.02 8 20 C8.66 20 9.32 20 10 20 C10 18.68 10 17.36 10 16 C9.34 16 8.68 16 8 16 C7.34 14.35 6.68 12.7 6 11 C4.35 12.32 2.7 13.64 1 15 C-1.61437258 11.07844114 -1.21703011 7.55763232 -1 3 C-0.67 2.01 -0.34 1.02 0 0 Z " fill="#A3ABB0" transform="translate(265,12)"/>
<path d="M0 0 C0.66 0.33 1.32 0.66 2 1 C2.09038099 6.15171623 1.84681133 10.91913204 1 16 C-3.27240704 17.16520192 -6.66420836 16.72263194 -11 16 C-11.99 16 -12.98 16 -14 16 C-14.144375 17.0725 -14.28875 18.145 -14.4375 19.25 C-15 23 -15 23 -15.625 25.0625 C-16.16270906 27.84066348 -15.49885095 30.22860583 -15 33 C-15 34.98 -15 36.96 -15 39 C-21.27 39 -27.54 39 -34 39 C-34 38.67 -34 38.34 -34 38 C-28.72 38 -23.44 38 -18 38 C-18.04640625 36.68644531 -18.0928125 35.37289062 -18.140625 34.01953125 C-18.17815266 32.28387696 -18.21455175 30.54819801 -18.25 28.8125 C-18.28351563 27.94818359 -18.31703125 27.08386719 -18.3515625 26.19335938 C-18.41568082 22.00963898 -18.3480153 19.60902678 -16.234375 15.91015625 C-13.84393808 13.86658343 -13.06936236 13.39719576 -10 13.625 C-9.01 13.67527344 -9.01 13.67527344 -8 13.7265625 C-6 14 -6 14 -2 15 C-1.34 10.05 -0.68 5.1 0 0 Z " fill="#1D1C1C" transform="translate(366,137)"/>
<path d="M0 0 C1.98 0 3.96 0 6 0 C6 1.32 6 2.64 6 4 C6.66 4 7.32 4 8 4 C8 4.66 8 5.32 8 6 C7.34 6 6.68 6 6 6 C6.061875 7.175625 6.061875 7.175625 6.125 8.375 C6 11 6 11 4 13 C4.33 13.99 4.66 14.98 5 16 C1.7 15.67 -1.6 15.34 -5 15 C-5 13.35 -5 11.7 -5 10 C-4.34 10 -3.68 10 -3 10 C-2.01 6.7 -1.02 3.4 0 0 Z " fill="#B7B7B7" transform="translate(129,124)"/>
<path d="M0 0 C4.5485649 1.92050518 7.09758344 3.34964842 9 8 C9.60510038 13.44590346 8.65409465 17.22262963 6 22 C-0.62620884 28.7768045 -8.78907565 29.79883646 -17.89453125 30.09375 C-23.69628814 30.15213246 -29.26612044 29.88213532 -35 29 C-35 28.67 -35 28.34 -35 28 C-34.28980713 27.98541748 -33.57961426 27.97083496 -32.84790039 27.95581055 C-29.58559222 27.88068375 -26.32423602 27.78423867 -23.0625 27.6875 C-21.38704102 27.65366211 -21.38704102 27.65366211 -19.67773438 27.61914062 C-8.79972514 27.39682799 -8.79972514 27.39682799 0.61694336 22.54931641 C4.45141679 18.08061497 5.38559943 14.98392377 5.3671875 9.2578125 C4.79569991 5.74377182 2.65733849 4.19230426 0 2 C0 1.34 0 0.68 0 0 Z " fill="#1D1C1C" transform="translate(234,147)"/>
<path d="M0 0 C1.98 0 3.96 0 6 0 C6 2.31 6 4.62 6 7 C5.34 7 4.68 7 4 7 C3.67 7.99 3.34 8.98 3 10 C0.4375 11.1875 0.4375 11.1875 -2 12 C-2 12.66 -2 13.32 -2 14 C-4.875 13.6875 -4.875 13.6875 -8 13 C-8.66 12.01 -9.32 11.02 -10 10 C-9.34 10 -8.68 10 -8 10 C-8 9.34 -8 8.68 -8 8 C-7.195625 7.525625 -6.39125 7.05125 -5.5625 6.5625 C-2.7081924 5.20016328 -2.7081924 5.20016328 -2 2 C-1.34 2 -0.68 2 0 2 C0 1.34 0 0.68 0 0 Z " fill="#BBBBBB" transform="translate(273,185)"/>
<path d="M0 0 C2.64 0 5.28 0 8 0 C8 1.65 8 3.3 8 5 C7.01 5.33 6.02 5.66 5 6 C5 6.99 5 7.98 5 9 C4.34 9 3.68 9 3 9 C2.67 10.32 2.34 11.64 2 13 C-0.97 13 -3.94 13 -7 13 C-6.62403791 10.21788056 -6.32681541 8.4120716 -4.5625 6.1875 C-3 5 -3 5 -1 5 C-0.67 3.35 -0.34 1.7 0 0 Z " fill="#BEBEBE" transform="translate(249,187)"/>
<path d="M0 0 C0 0.66 0 1.32 0 2 C0.66 2.66 1.32 3.32 2 4 C1.01 4.33 0.02 4.66 -1 5 C-1.33 7.97 -1.66 10.94 -2 14 C-7.75 15.125 -7.75 15.125 -10 14 C-10.125 6.375 -10.125 6.375 -9 3 C-8.34 3 -7.68 3 -7 3 C-7 2.34 -7 1.68 -7 1 C-4.53721199 -0.231394 -2.7204945 -0.07159196 0 0 Z " fill="#B3B3B3" transform="translate(183,167)"/>
<path d="M0 0 C1 1 1 1 1.09765625 2.84765625 C1.04882812 5.92382812 1.04882812 5.92382812 1 9 C0.34 9 -0.32 9 -1 9 C-1.33 10.98 -1.66 12.96 -2 15 C-5.71599191 15.20086443 -6.77208445 15.1519437 -10 13 C-10 12.01 -10 11.02 -10 10 C-9.34 10 -8.68 10 -8 10 C-7.95101562 9.36191406 -7.90203125 8.72382813 -7.8515625 8.06640625 C-7.77679688 7.24011719 -7.70203125 6.41382813 -7.625 5.5625 C-7.55539063 4.73878906 -7.48578125 3.91507813 -7.4140625 3.06640625 C-7.27742188 2.38449219 -7.14078125 1.70257813 -7 1 C-4.51588385 -0.24205807 -2.74800896 -0.14092354 0 0 Z " fill="#AAAAAA" transform="translate(128,179)"/>
<path d="M0 0 C1.32 0.33 2.64 0.66 4 1 C4.33 3.64 4.66 6.28 5 9 C2.36 9.33 -0.28 9.66 -3 10 C-3.103125 10.969375 -3.20625 11.93875 -3.3125 12.9375 C-3.76223831 15.99197269 -4.44041184 18.91274401 -5.3125 21.875 C-5.53550781 22.63554687 -5.75851563 23.39609375 -5.98828125 24.1796875 C-7 26 -7 26 -9.10546875 26.7578125 C-10.04326172 26.87769531 -10.04326172 26.87769531 -11 27 C-9.28095531 18.11826911 -7.08016726 9.91881102 -1 3 C-0.67 2.01 -0.34 1.02 0 0 Z " fill="#101010" transform="translate(188,110)"/>
<path d="M0 0 C2.64 0 5.28 0 8 0 C8.02685938 2.14576637 8.04633088 4.29162645 8.0625 6.4375 C8.07410156 7.63246094 8.08570313 8.82742187 8.09765625 10.05859375 C8 13 8 13 7 14 C4.66055264 13.71269945 2.3260857 13.38063221 0 13 C0 8.71 0 4.42 0 0 Z " fill="#BFBFBF" transform="translate(160,110)"/>
<path d="M0 0 C2.4375 0.1875 2.4375 0.1875 3.4375 1.1875 C3.67630597 8.70988806 3.67630597 8.70988806 2.4375 11.1875 C1.7775 11.1875 1.1175 11.1875 0.4375 11.1875 C0.4375 11.8475 0.4375 12.5075 0.4375 13.1875 C-2.2025 13.1875 -4.8425 13.1875 -7.5625 13.1875 C-7.5625 11.8675 -7.5625 10.5475 -7.5625 9.1875 C-6.9025 9.1875 -6.2425 9.1875 -5.5625 9.1875 C-5.43875 8.07375 -5.315 6.96 -5.1875 5.8125 C-4.48979957 1.7658375 -4.23669807 0.3100023 0 0 Z " fill="#B7B7B7" transform="translate(181.5625,186.8125)"/>
<path d="M0 0 C0.125 7.75 0.125 7.75 -1 10 C-1.66 10 -2.32 10 -3 10 C-3 10.66 -3 11.32 -3 12 C-6.375 12.625 -6.375 12.625 -10 13 C-10.66 12.34 -11.32 11.68 -12 11 C-11.625 8.875 -11.625 8.875 -11 7 C-10.34 7 -9.68 7 -9 7 C-9 6.34 -9 5.68 -9 5 C-8.34 5 -7.68 5 -7 5 C-6.814375 4.0409375 -6.814375 4.0409375 -6.625 3.0625 C-6.41875 2.381875 -6.2125 1.70125 -6 1 C-4 0 -4 0 0 0 Z " fill="#B2B2B2" transform="translate(238,175)"/>
<path d="M0 0 C2.31 0 4.62 0 7 0 C7.33 1.32 7.66 2.64 8 4 C7.34 4 6.68 4 6 4 C6 4.99 6 5.98 6 7 C5.34 7 4.68 7 4 7 C3.67 8.65 3.34 10.3 3 12 C0.6875 12.625 0.6875 12.625 -2 13 C-2.99 12.34 -3.98 11.68 -5 11 C-4.32902328 6.80639551 -2.1441606 3.59665648 0 0 Z " fill="#B3B3B3" transform="translate(198,178)"/>
<path d="M0 0 C19.47 0 38.94 0 59 0 C58.67 0.66 58.34 1.32 58 2 C39.52 1.67 21.04 1.34 2 1 C2 2.65 2 4.3 2 6 C1.34 6 0.68 6 0 6 C-0.33 8.64 -0.66 11.28 -1 14 C-3.64 14 -6.28 14 -9 14 C-8.38511719 13.74992187 -7.77023438 13.49984375 -7.13671875 13.2421875 C-4.63140567 11.78571664 -4.0139725 10.72410378 -2.8125 8.125 C-2.48894531 7.44695312 -2.16539062 6.76890625 -1.83203125 6.0703125 C-0.83394226 3.72315261 -0.83394226 3.72315261 0 0 Z " fill="#010101" transform="translate(218,108)"/>
<path d="M0 0 C0.66 0.33 1.32 0.66 2 1 C2 5.95 2 10.9 2 16 C1.34 16 0.68 16 0 16 C-0.0928125 17.11375 -0.0928125 17.11375 -0.1875 18.25 C-1.2680721 21.90732095 -2.85211997 22.92526089 -6 25 C-15.26396746 29.51321492 -25.34728362 28.55580197 -35 26 C-32.19324136 25.19391213 -29.79672319 24.90579522 -26.8828125 25.0078125 C-26.11066406 25.02457031 -25.33851563 25.04132813 -24.54296875 25.05859375 C-22.93856175 25.10265662 -21.33435214 25.15466542 -19.73046875 25.21484375 C-13.79584424 25.32346417 -10.0790613 24.14307831 -5.13671875 20.703125 C0.55335513 14.997714 -0.019484 7.5695327 0 0 Z " fill="#242323" transform="translate(327,149)"/>
<path d="M0 0 C0.99 0 1.98 0 3 0 C2.8125 3.25 2.8125 3.25 2 7 C-0.4375 9.125 -0.4375 9.125 -3 11 C-4.33298974 13.61818456 -4.33298974 13.61818456 -5 16 C-6.98 15.34 -8.96 14.68 -11 14 C-11 12.35 -11 10.7 -11 9 C-9.35 8.67 -7.7 8.34 -6 8 C-6 7.34 -6 6.68 -6 6 C-4.625 4.375 -4.625 4.375 -3 3 C-2.34 3 -1.68 3 -1 3 C-0.67 2.01 -0.34 1.02 0 0 Z " fill="#AAAAAA" transform="translate(235,110)"/>
<path d="M0 0 C1.9375 0.8125 1.9375 0.8125 4 2 C4.33 2.99 4.66 3.98 5 5 C5.66 5 6.32 5 7 5 C8.48679725 7.97359449 8.11112605 10.66299179 8.09765625 13.9765625 C8.0962413 14.66181 8.09482635 15.3470575 8.09336853 16.05307007 C8.08776675 18.24375761 8.07521406 20.4343433 8.0625 22.625 C8.05748522 24.10937352 8.05292228 25.59374865 8.04882812 27.078125 C8.03864721 30.7188209 8.01907237 34.35929631 8 38 C1.73 38 -4.54 38 -11 38 C-10.67 37.34 -10.34 36.68 -10 36 C-4.72 36.33 0.56 36.66 6 37 C5.94877111 32.97853224 5.88560016 28.95991982 5.79248047 24.93945312 C5.76438377 23.57401836 5.74311323 22.20842436 5.72900391 20.84277344 C5.70742018 18.87145962 5.6586454 16.90050369 5.609375 14.9296875 C5.58842773 13.74616699 5.56748047 12.56264648 5.54589844 11.34326172 C4.89792094 7.37483421 3.395708 5.1856098 1 2 C0.67 1.34 0.34 0.68 0 0 Z " fill="#100F0F" transform="translate(435,138)"/>
<path d="M0 0 C1.98 0 3.96 0 6 0 C6.36547507 6.45672625 6.36547507 6.45672625 4.84375 8.71875 C2.26760037 10.50895567 0.4145692 10.2969848 -2.6875 10.1875 C-3.68136719 10.16042969 -4.67523438 10.13335937 -5.69921875 10.10546875 C-6.45847656 10.07066406 -7.21773437 10.03585938 -8 10 C-8 8 -8 8 -6.125 5.875 C-4 4 -4 4 -2 4 C-1.34 2.68 -0.68 1.36 0 0 Z " fill="#B9B9B9" transform="translate(164,190)"/>
<path d="M0 0 C2.8125 0.6875 2.8125 0.6875 4.8125 3.6875 C4.1525 3.6875 3.4925 3.6875 2.8125 3.6875 C2.668125 4.821875 2.52375 5.95625 2.375 7.125 C1.8125 10.6875 1.8125 10.6875 0.8125 11.6875 C-1.52047433 11.72842937 -3.85455225 11.72991723 -6.1875 11.6875 C-6.1875 11.0275 -6.1875 10.3675 -6.1875 9.6875 C-6.8475 9.3575 -7.5075 9.0275 -8.1875 8.6875 C-4.26951552 0.9208759 -4.26951552 0.9208759 0 0 Z " fill="#B4B4B4" transform="translate(257.1875,112.3125)"/>
<path d="M0 0 C3 1 3 1 4.75 4.1875 C6.90416914 10.29283948 5.73424819 16.70138899 5 23 C4.34 23 3.68 23 3 23 C2.95875 23.5775 2.9175 24.155 2.875 24.75 C1.49571932 28.29672174 -0.68931457 29.25436586 -4 31 C-6.70209669 31.58699048 -9.22762676 31.80880185 -12 32 C-10 30 -10 30 -6.625 28.625 C-3.15669914 27.07024444 -1.32422959 25.94998371 1 23 C2.24971466 19.40810487 2.16736148 15.83645917 2.1875 12.0625 C2.20167969 10.85722656 2.21585938 9.65195313 2.23046875 8.41015625 C2.00944874 5.13980938 1.40750326 2.93183485 0 0 Z " fill="#111010" transform="translate(54,131)"/>
<path d="M0 0 C0.33 0.33 0.66 0.66 1 1 C0.91062197 2.52519276 0.75462854 4.04681929 0.5625 5.5625 C0.46066406 6.38878906 0.35882813 7.21507812 0.25390625 8.06640625 C0.17011719 8.70449219 0.08632812 9.34257812 0 10 C-5.41538462 11.23076923 -5.41538462 11.23076923 -8.375 10.0625 C-8.91125 9.711875 -9.4475 9.36125 -10 9 C-9.690625 8.236875 -9.38125 7.47375 -9.0625 6.6875 C-8.32106407 4.81210323 -7.63771783 2.91315348 -7 1 C-4.51588385 -0.24205807 -2.74800896 -0.14092354 0 0 Z " fill="#A5A5A5" transform="translate(159,123)"/>
<path d="M0 0 C1.485 0.99 1.485 0.99 3 2 C3 3.32 3 4.64 3 6 C3.66 6 4.32 6 5 6 C5 7.32 5 8.64 5 10 C4.34 10 3.68 10 3 10 C3 10.99 3 11.98 3 13 C4.65 12.67 6.3 12.34 8 12 C8 13.32 8 14.64 8 16 C9.98 15.67 11.96 15.34 14 15 C13.67 15.99 13.34 16.98 13 18 C8.40646673 17.43981302 2.42668586 16.42668586 -1 13 C-1.09879565 11.189715 -1.12971514 9.37547273 -1.125 7.5625 C-1.12757813 6.57378906 -1.13015625 5.58507812 -1.1328125 4.56640625 C-1 2 -1 2 0 0 Z " fill="#C5CED4" transform="translate(270,22)"/>
<path d="M0 0 C-1.65 0.66 -3.3 1.32 -5 2 C-5 6.62 -5 11.24 -5 16 C-6.65 16.33 -8.3 16.66 -10 17 C-10 12.71 -10 8.42 -10 4 C-10.66 3.67 -11.32 3.34 -12 3 C-10.3789897 2.30314502 -8.75303934 1.61777139 -7.125 0.9375 C-6.22007812 0.55464844 -5.31515625 0.17179687 -4.3828125 -0.22265625 C-2 -1 -2 -1 0 0 Z " fill="#B8B9BA" transform="translate(287,104)"/>
<path d="M0 0 C1.2065625 0.0309375 1.2065625 0.0309375 2.4375 0.0625 C1.1175 0.3925 -0.2025 0.7225 -1.5625 1.0625 C-1.7790625 2.238125 -1.7790625 2.238125 -2 3.4375 C-2.5625 6.0625 -2.5625 6.0625 -3.5625 8.0625 C-3.64558638 9.43798156 -3.66986016 10.81735796 -3.66015625 12.1953125 C-3.65765869 12.92121582 -3.65516113 13.64711914 -3.65258789 14.39501953 C-3.64348389 15.31653809 -3.63437988 16.23805664 -3.625 17.1875 C-3.604375 20.11625 -3.58375 23.045 -3.5625 26.0625 C-9.5025 26.0625 -15.4425 26.0625 -21.5625 26.0625 C-21.5625 25.7325 -21.5625 25.4025 -21.5625 25.0625 C-16.6125 25.0625 -11.6625 25.0625 -6.5625 25.0625 C-6.61470703 23.09216797 -6.61470703 23.09216797 -6.66796875 21.08203125 C-6.69611466 19.34636699 -6.72341396 17.61068885 -6.75 15.875 C-6.77513672 15.01068359 -6.80027344 14.14636719 -6.82617188 13.25585938 C-6.88272752 8.33551791 -6.75526261 5.07556937 -3.5625 1.0625 C-2.5625 0.0625 -2.5625 0.0625 0 0 Z " fill="#1A1919" transform="translate(394.5625,149.9375)"/>
<path d="M0 0 C2.31 0.33 4.62 0.66 7 1 C7.09765625 7.15234375 7.09765625 7.15234375 7 9 C6 10 6 10 3.71484375 10.09765625 C2.34005859 10.08025391 2.34005859 10.08025391 0.9375 10.0625 C0.01839844 10.05347656 -0.90070313 10.04445312 -1.84765625 10.03515625 C-2.55792969 10.02355469 -3.26820313 10.01195312 -4 10 C-3.25130208 8.27473958 -2.50260417 6.54947917 -1.75390625 4.82421875 C-1.10038058 3.24288979 -0.54108198 1.62324594 0 0 Z " fill="#BFBFBF" transform="translate(210,190)"/>
<path d="M0 0 C2.00720923 0.28674418 4.0085944 0.61866701 6 1 C6.48798077 7.34375 6.48798077 7.34375 4.1875 10.4375 C2 12 2 12 -1 12 C-1 11.34 -1 10.68 -1 10 C-1.66 10 -2.32 10 -3 10 C-3 8.68 -3 7.36 -3 6 C-2.34 6 -1.68 6 -1 6 C-1.0309375 4.7934375 -1.0309375 4.7934375 -1.0625 3.5625 C-1 1 -1 1 0 0 Z " fill="#B8B8B8" transform="translate(268,118)"/>
<path d="M0 0 C-3 2 -3 2 -5 2 C-5 9.92 -5 17.84 -5 26 C-11.27 26 -17.54 26 -24 26 C-24 25.67 -24 25.34 -24 25 C-18.72 25 -13.44 25 -8 25 C-8.03480469 23.44667969 -8.06960938 21.89335937 -8.10546875 20.29296875 C-8.1336044 18.25782329 -8.1609048 16.22266617 -8.1875 14.1875 C-8.21263672 13.16333984 -8.23777344 12.13917969 -8.26367188 11.08398438 C-8.27817383 9.60961914 -8.27817383 9.60961914 -8.29296875 8.10546875 C-8.3086792 7.19949951 -8.32438965 6.29353027 -8.34057617 5.36010742 C-8 3 -8 3 -6.6496582 1.19262695 C-4.39093918 -0.44032294 -2.71741961 -0.22033132 0 0 Z " fill="#030303" transform="translate(423,150)"/>
<path d="M0 0 C0.66 0 1.32 0 2 0 C2 3.96 2 7.92 2 12 C-2.31619303 12.90338924 -4.50797614 12.89840477 -9 12 C-9 15.96 -9 19.92 -9 24 C-9.99 23.34 -10.98 22.68 -12 22 C-12.41620943 18.30406029 -12.13007474 14.72880913 -12 11 C-8.04 11 -4.08 11 0 11 C0 7.37 0 3.74 0 0 Z " fill="#1E1D1D" transform="translate(277,138)"/>
<path d="M0 0 C1.98 0.99 1.98 0.99 4 2 C4 2.66 4 3.32 4 4 C4.66 4 5.32 4 6 4 C8.80512399 9.5439852 9.3935213 13.77270879 9.1875 19.9375 C9.17396484 20.71673828 9.16042969 21.49597656 9.14648438 22.29882812 C9.11150224 24.19952404 9.05770959 26.09985834 9 28 C8.01 27.67 7.02 27.34 6 27 C5.94392578 25.15535156 5.94392578 25.15535156 5.88671875 23.2734375 C5.82102972 21.64059599 5.75458341 20.00778482 5.6875 18.375 C5.66494141 17.56675781 5.64238281 16.75851563 5.61914062 15.92578125 C5.39629284 10.94209446 4.75622802 7.31468781 2 3 C1.34 2.67 0.68 2.34 0 2 C0 1.34 0 0.68 0 0 Z " fill="#090909" transform="translate(123,140)"/>
<path d="M0 0 C0.33 0.66 0.66 1.32 1 2 C0.13375 2.66 -0.7325 3.32 -1.625 4 C-5.43886244 7.15097682 -8.17861552 10.96802147 -11 15 C-11.66 14.34 -12.32 13.68 -13 13 C-12.01 11.35 -11.02 9.7 -10 8 C-13.21203935 10.49825283 -16.17493137 13.0702992 -19 16 C-16.87860406 9.63581217 -13.20047138 6.8665544 -7.375 3.8125 C-6.41335937 3.30332031 -5.45171875 2.79414062 -4.4609375 2.26953125 C-2.97824634 1.50465089 -1.49222386 0.74611193 0 0 Z " fill="#C5CED4" transform="translate(151,40)"/>
<path d="M0 0 C1.01725914 0.00636726 1.01725914 0.00636726 2.05506897 0.01286316 C4.19469027 0.02948934 6.33332572 0.06710701 8.47265625 0.10546875 C9.93423107 0.12053653 11.39582083 0.13422125 12.85742188 0.14648438 C16.41698022 0.17933898 19.97597181 0.23100634 23.53515625 0.29296875 C21.31465569 2.51346931 20.57537485 2.87071617 17.53515625 3.29296875 C16.63539063 3.13957031 15.735625 2.98617188 14.80859375 2.828125 C4.70464998 1.17628694 -4.74525816 2.30232703 -14.46484375 5.29296875 C-14.46484375 4.63296875 -14.46484375 3.97296875 -14.46484375 3.29296875 C-9.38372879 0.81109457 -5.75543289 -0.07164439 0 0 Z " fill="#BCC6CC" transform="translate(224.46484375,-0.29296875)"/>
<path d="M0 0 C1.98 0.99 3.96 1.98 6 3 C5.01 3.33 4.02 3.66 3 4 C3.04125 5.155 3.0825 6.31 3.125 7.5 C3.14087433 11.94481301 2.21793105 15.73724131 1 20 C-1.375 20.625 -1.375 20.625 -4 21 C-4.66 20.34 -5.32 19.68 -6 19 C-4.68 19 -3.36 19 -2 19 C-0.48766299 12.53205867 0.21432579 6.64409958 0 0 Z " fill="#080909" transform="translate(140,100)"/>
<path d="M0 0 C0.99 0.33 1.98 0.66 3 1 C3 2.65 3 4.3 3 6 C3.66 6 4.32 6 5 6 C5.50559908 7.43554025 6.0042749 8.8735202 6.5 10.3125 C6.7784375 11.11300781 7.056875 11.91351563 7.34375 12.73828125 C8 15 8 15 8 18 C8.66 18 9.32 18 10 18 C9.67 20.31 9.34 22.62 9 25 C7.17938986 22.26908478 6.28717487 20.22315205 5.2734375 17.1484375 C4.809375 15.74851563 4.809375 15.74851563 4.3359375 14.3203125 C4.01882812 13.34835938 3.70171875 12.37640625 3.375 11.375 C3.05015625 10.3953125 2.7253125 9.415625 2.390625 8.40625 C0 1.15401786 0 1.15401786 0 0 Z " fill="#0A0909" transform="translate(149,137)"/>
<path d="M0 0 C-0.99 0.66 -1.98 1.32 -3 2 C-3.32750364 5.32247018 -3.32750364 5.32247018 -3.125 9.0625 C-3.05458975 11.37430336 -3.00584796 13.68713205 -3 16 C-4 17 -4 17 -6.5625 17.0625 C-7.366875 17.041875 -8.17125 17.02125 -9 17 C-8.34 16.34 -7.68 15.68 -7 15 C-6.69057565 11.3929962 -6.62063537 7.80636897 -6.5390625 4.1875 C-6 1 -6 1 -4.0859375 -0.5 C-2 -1 -2 -1 0 0 Z " fill="#030303" transform="translate(288,105)"/>
<path d="M0 0 C0.66 0 1.32 0 2 0 C2 1.32 2 2.64 2 4 C2.66 4 3.32 4 4 4 C4 4.66 4 5.32 4 6 C3.34 6 2.68 6 2 6 C2.061875 7.175625 2.061875 7.175625 2.125 8.375 C2 11 2 11 0 13 C0.33 13.99 0.66 14.98 1 16 C-2.3 15.67 -5.6 15.34 -9 15 C-8.67 14.34 -8.34 13.68 -8 13 C-6.68 13 -5.36 13 -4 13 C-0.64208027 9.02024328 -0.42415123 5.00498447 0 0 Z " fill="#0F0F0F" transform="translate(133,124)"/>
<path d="M0 0 C-0.21875 1.83984375 -0.21875 1.83984375 -1 4 C-3.03125 5.37890625 -3.03125 5.37890625 -5.5 6.5625 C-7.93701504 7.68762798 -7.93701504 7.68762798 -10 9 C-10.33 9.99 -10.66 10.98 -11 12 C-12.32 11.67 -13.64 11.34 -15 11 C-15 10.34 -15 9.68 -15 9 C-15.66 8.67 -16.32 8.34 -17 8 C-16.01 7.608125 -15.02 7.21625 -14 6.8125 C-10.29865821 5.24451814 -7.03894419 3.21257776 -3.69921875 0.98828125 C-2 0 -2 0 0 0 Z " fill="#C2CDD4" transform="translate(209,4)"/>
<path d="M0 0 C0.66 0 1.32 0 2 0 C3.60355101 3.50776784 4.22036864 6.14354879 4 10 C3.34 10 2.68 10 2 10 C1.67 12.31 1.34 14.62 1 17 C0.34 17 -0.32 17 -1 17 C-1.33 17.99 -1.66 18.98 -2 20 C-3.65 20 -5.3 20 -7 20 C-6.401875 19.46375 -5.80375 18.9275 -5.1875 18.375 C-0.383779 13.15953148 0.31795821 8.83693652 0.10546875 1.9765625 C0.07066406 1.32429688 0.03585938 0.67203125 0 0 Z " fill="#0E0E0E" transform="translate(150,108)"/>
<path d="M0 0 C0.33 0 0.66 0 1 0 C1 3.96 1 7.92 1 12 C2.32 11.67 3.64 11.34 5 11 C5.33 7.37 5.66 3.74 6 0 C6.66 0 7.32 0 8 0 C8.02685938 2.14576637 8.04633088 4.29162645 8.0625 6.4375 C8.07410156 7.63246094 8.08570313 8.82742187 8.09765625 10.05859375 C8 13 8 13 7 14 C4.66055264 13.71269945 2.3260857 13.38063221 0 13 C0 8.71 0 4.42 0 0 Z " fill="#171717" transform="translate(160,110)"/>
<path d="M0 0 C1.32 0.33 2.64 0.66 4 1 C4.33 3.64 4.66 6.28 5 9 C2.69 9 0.38 9 -2 9 C-3 6 -3 6 -1.5625 2.8125 C-1.046875 1.884375 -0.53125 0.95625 0 0 Z " fill="#9C9C9C" transform="translate(188,110)"/>
<path d="M0 0 C0.66 0 1.32 0 2 0 C2.79652605 4.18176179 3 7.65984494 3 12 C-3.27 12 -9.54 12 -16 12 C-16 11.67 -16 11.34 -16 11 C-10.72 11 -5.44 11 0 11 C0 7.37 0 3.74 0 0 Z " fill="#000000" transform="translate(348,164)"/>
<path d="M0 0 C2 1 2 1 4 4 C3.01 4.33 2.02 4.66 1 5 C0.67 7.97 0.34 10.94 0 14 C-5.75 15.125 -5.75 15.125 -8 14 C-7.67 13.34 -7.34 12.68 -7 12 C-5.02 12.495 -5.02 12.495 -3 13 C-2.86722656 12.39671875 -2.73445312 11.7934375 -2.59765625 11.171875 C-2.42105469 10.37265625 -2.24445313 9.5734375 -2.0625 8.75 C-1.88847656 7.96109375 -1.71445313 7.1721875 -1.53515625 6.359375 C-1.052444 4.23121297 -0.53836822 2.11467158 0 0 Z " fill="#101010" transform="translate(181,167)"/>
<path d="M0 0 C1.9453125 -0.29296875 1.9453125 -0.29296875 4.125 -0.1875 C5.40375 -0.125625 6.6825 -0.06375 8 0 C6.62048282 2.75903437 5.17759337 2.83859851 2.3125 3.875 C-3.27905333 6.02375406 -7.93037416 8.47819351 -12 13 C-12.66 12.67 -13.32 12.34 -14 12 C-12.56771184 10.68181446 -11.12897516 9.37063296 -9.6875 8.0625 C-8.88699219 7.33160156 -8.08648437 6.60070312 -7.26171875 5.84765625 C-5 4 -5 4 -2 3 C-1.34 2.01 -0.68 1.02 0 0 Z " fill="#D5DDE1" transform="translate(183,13)"/>
<path d="M0 0 C3.43927579 1.2419607 6.25207819 2.55740284 9 5 C9 5.66 9 6.32 9 7 C9.66 7 10.32 7 11 7 C11 7.66 11 8.32 11 9 C10.34 9 9.68 9 9 9 C8.67 10.32 8.34 11.64 8 13 C7.773125 12.236875 7.54625 11.47375 7.3125 10.6875 C6.2130261 7.80714341 6.2130261 7.80714341 3.4375 6.5 C1 5 1 5 0.1875 2.3125 C0.0946875 1.1678125 0.0946875 1.1678125 0 0 Z " fill="#A5ACB0" transform="translate(254,3)"/>
<path d="M0 0 C0.33 0 0.66 0 1 0 C1 1.98 1 3.96 1 6 C-0.32 6.33 -1.64 6.66 -3 7 C-3 7.66 -3 8.32 -3 9 C-6.66430125 11.32011034 -9.85435257 11.26783151 -14.125 11.25 C-15.36507812 11.25515625 -16.60515625 11.2603125 -17.8828125 11.265625 C-21 11 -21 11 -23 9 C-21.58847656 9.06960937 -21.58847656 9.06960937 -20.1484375 9.140625 C-12.428097 9.69988987 -12.428097 9.69988987 -5.3125 7.3125 C-3.01963194 5.01963194 -1.5084677 2.85814932 0 0 Z " fill="#1E1D1D" transform="translate(113,165)"/>
<path d="M0 0 C0.99 0 1.98 0 3 0 C3 2.31 3 4.62 3 7 C2.34 7 1.68 7 1 7 C0.67 7.99 0.34 8.98 0 10 C-2.5625 11.1875 -2.5625 11.1875 -5 12 C-5 12.66 -5 13.32 -5 14 C-7.97 13.505 -7.97 13.505 -11 13 C-10.46375 12.7525 -9.9275 12.505 -9.375 12.25 C-6.32365129 10.644027 -3.67809442 9.20198875 -1 7 C-0.02649222 3.3634269 -0.02649222 3.3634269 0 0 Z " fill="#131313" transform="translate(276,185)"/>
<path d="M0 0 C0.99 0.33 1.98 0.66 3 1 C3 3.64 3 6.28 3 9 C2.34 9 1.68 9 1 9 C0.67 10.98 0.34 12.96 0 15 C-1.65 15 -3.3 15 -5 15 C-5.33 14.34 -5.66 13.68 -6 13 C-5.38125 12.7525 -4.7625 12.505 -4.125 12.25 C-1.51001756 10.71177504 -0.93291754 9.87649576 0 7 C0.0777346 4.66796188 0.08967728 2.33160941 0 0 Z " fill="#0D0D0D" transform="translate(126,179)"/>
<path d="M0 0 C0.99 0.33 1.98 0.66 3 1 C5.38300728 6.11905268 6.68744721 10.27127322 6 16 C5.01 16.66 4.02 17.32 3 18 C2.92652344 16.67935547 2.92652344 16.67935547 2.8515625 15.33203125 C2.77679688 14.17058594 2.70203125 13.00914062 2.625 11.8125 C2.55539063 10.66394531 2.48578125 9.51539063 2.4140625 8.33203125 C2.02490426 5.20040883 1.3190149 2.84714191 0 0 Z " fill="#181818" transform="translate(54,131)"/>
<path d="M0 0 C0.99 0 1.98 0 3 0 C3 1.65 3 3.3 3 5 C2.01 5.33 1.02 5.66 0 6 C0 6.99 0 7.98 0 9 C-0.66 9 -1.32 9 -2 9 C-2.33 10.32 -2.66 11.64 -3 13 C-4.32 12.67 -5.64 12.34 -7 12 C-6.57847656 11.46890625 -6.15695313 10.9378125 -5.72265625 10.390625 C-5.17480469 9.68421875 -4.62695312 8.9778125 -4.0625 8.25 C-3.51722656 7.55390625 -2.97195312 6.8578125 -2.41015625 6.140625 C-1.02574346 4.03907872 -0.43713013 2.45678201 0 0 Z " fill="#111111" transform="translate(254,187)"/>
<path d="M0 0 C0.66 0.33 1.32 0.66 2 1 C2.09038099 6.15171623 1.84681133 10.91913204 1 16 C-0.65 16.33 -2.3 16.66 -4 17 C-3.34 16.67 -2.68 16.34 -2 16 C-1.52402634 13.29400158 -1.15906371 10.66404596 -0.875 7.9375 C-0.74544922 6.79958008 -0.74544922 6.79958008 -0.61328125 5.63867188 C-0.40060483 3.76003014 -0.19924541 1.88011364 0 0 Z " fill="#020202" transform="translate(366,137)"/>
<path d="M0 0 C0.66 0.33 1.32 0.66 2 1 C1.67 3.31 1.34 5.62 1 8 C0.34 8 -0.32 8 -1 8 C-1.33 9.65 -1.66 11.3 -2 13 C-3.65 13.33 -5.3 13.66 -7 14 C-7.33 13.34 -7.66 12.68 -8 12 C-7.01 12 -6.02 12 -5 12 C-3.35 8.04 -1.7 4.08 0 0 Z " fill="#100F0F" transform="translate(239,130)"/>
<path d="M0 0 C1.32 0.33 2.64 0.66 4 1 C4 2.32 4 3.64 4 5 C3.34 5 2.68 5 2 5 C2 5.66 2 6.32 2 7 C1.34 7 0.68 7 0 7 C-0.33 7.99 -0.66 8.98 -1 10 C-1.66 10 -2.32 10 -3 10 C-3 10.66 -3 11.32 -3 12 C-4.32 11.67 -5.64 11.34 -7 11 C-5.824375 10.2265625 -5.824375 10.2265625 -4.625 9.4375 C-1.44405752 6.4837677 -0.88506307 4.18393452 0 0 Z " fill="#1F1F1F" transform="translate(238,110)"/>
<path d="M0 0 C0.66 0 1.32 0 2 0 C3.1577506 3.47325181 3.06866652 6.36067448 3 10 C3.66 10 4.32 10 5 10 C5 10.66 5 11.32 5 12 C5.99 12.33 6.98 12.66 8 13 C7.67 13.66 7.34 14.32 7 15 C6.01 15 5.02 15 4 15 C4 13.68 4 12.36 4 11 C2.35 11.33 0.7 11.66 -1 12 C-1 11.01 -1 10.02 -1 9 C-0.34 9 0.32 9 1 9 C0.67 6.03 0.34 3.06 0 0 Z " fill="#585D5F" transform="translate(274,23)"/>
<path d="M0 0 C0.99 0.33 1.98 0.66 3 1 C3 1.99 3 2.98 3 4 C2.34 4 1.68 4 1 4 C1 4.99 1 5.98 1 7 C0.34 7 -0.32 7 -1 7 C-1.33 8.65 -1.66 10.3 -2 12 C-4.375 12.625 -4.375 12.625 -7 13 C-7.66 12.34 -8.32 11.68 -9 11 C-8.236875 10.773125 -7.47375 10.54625 -6.6875 10.3125 C-3.38791107 8.70107285 -2.56043177 7.27690673 -1 4 C-0.30420546 1.80869466 -0.30420546 1.80869466 0 0 Z " fill="#141414" transform="translate(203,178)"/>
<path d="M0 0 C1.485 0.99 1.485 0.99 3 2 C3 3.32 3 4.64 3 6 C3.66 6 4.32 6 5 6 C5 7.32 5 8.64 5 10 C4.34 10 3.68 10 3 10 C3 10.66 3 11.32 3 12 C2.34 12 1.68 12 1 12 C0.63762737 10.37681021 0.28534843 8.7513642 -0.0625 7.125 C-0.25972656 6.22007813 -0.45695312 5.31515625 -0.66015625 4.3828125 C-1 2 -1 2 0 0 Z " fill="#B7C4CD" transform="translate(270,22)"/>
<path d="M0 0 C0 0.33 0 0.66 0 1 C-2.97 1.66 -5.94 2.32 -9 3 C-9 6.63 -9 10.26 -9 14 C-9.99 13.34 -10.98 12.68 -12 12 C-12.48896008 7.66921068 -12.74602286 5.24337143 -10.5 1.5 C-6.85991277 -0.68405234 -4.20345267 -0.28023018 0 0 Z " fill="#252424" transform="translate(308,148)"/>
<path d="M0 0 C1.32 0.66 2.64 1.32 4 2 C3.01 2.495 3.01 2.495 2 3 C1.62599214 5.32716 1.29235267 7.66117862 1 10 C0 11 0 11 -3.5625 11.0625 C-4.696875 11.041875 -5.83125 11.02125 -7 11 C-6.06414062 10.64808594 -6.06414062 10.64808594 -5.109375 10.2890625 C-2.39744059 8.63176925 -2.11024003 7.3858401 -1.25 4.375 C-1.00765625 3.55773437 -0.7653125 2.74046875 -0.515625 1.8984375 C-0.34546875 1.27195312 -0.1753125 0.64546875 0 0 Z " fill="#101010" transform="translate(258,113)"/>
<path d="M0 0 C1.32 0.33 2.64 0.66 4 1 C4.125 8.75 4.125 8.75 3 11 C2.34 11 1.68 11 1 11 C1 11.66 1 12.32 1 13 C0.01 13 -0.98 13 -2 13 C-1.690625 12.484375 -1.38125 11.96875 -1.0625 11.4375 C0.30362618 8.30344583 0.68583935 5.39293507 1 2 C0.67 1.34 0.34 0.68 0 0 Z " fill="#0D0D0D" transform="translate(181,187)"/>
<path d="M0 0 C0.66 0 1.32 0 2 0 C2.125 7.75 2.125 7.75 1 10 C0.34 10 -0.32 10 -1 10 C-1 10.66 -1 11.32 -1 12 C-3.31 12.33 -5.62 12.66 -8 13 C-8.33 12.34 -8.66 11.68 -9 11 C-8.071875 10.731875 -7.14375 10.46375 -6.1875 10.1875 C-2.4469862 8.86240553 -2.4469862 8.86240553 0 6 C0.25048636 2.87450983 0.25048636 2.87450983 0 0 Z " fill="#151515" transform="translate(236,175)"/>
<path d="M0 0 C1.953125 0.7109375 1.953125 0.7109375 4 2 C4.609375 4.1640625 4.609375 4.1640625 4.75 6.625 C4.80671875 7.44226562 4.8634375 8.25953125 4.921875 9.1015625 C4.94765625 9.72804688 4.9734375 10.35453125 5 11 C5.66 11 6.32 11 7 11 C6.67 12.98 6.34 14.96 6 17 C5.67 17 5.34 17 5 17 C3.04911777 11.38145918 1.36827653 5.78886224 0 0 Z " fill="#141515" transform="translate(302,52)"/>
<path d="M0 0 C0.66 0 1.32 0 2 0 C2.48798077 6.34375 2.48798077 6.34375 0.1875 9.4375 C-2 11 -2 11 -5 11 C-5 10.34 -5 9.68 -5 9 C-5.66 8.67 -6.32 8.34 -7 8 C-5.35 7.67 -3.7 7.34 -2 7 C-1.34 4.69 -0.68 2.38 0 0 Z " fill="#1D1616" transform="translate(272,119)"/>
<path d="M0 0 C0.66 0 1.32 0 2 0 C2 2.31 2 4.62 2 7 C1.34 7 0.68 7 0 7 C0 7.99 0 8.98 0 10 C-1.32 10.33 -2.64 10.66 -4 11 C-3.52269162 9.5410574 -3.04308958 8.08286504 -2.5625 6.625 C-2.29566406 5.81289062 -2.02882812 5.00078125 -1.75390625 4.1640625 C-1 2 -1 2 0 0 Z " fill="#0D0C0C" transform="translate(181,137)"/>
<path d="M0 0 C3.03869411 1.51934706 3.64410306 3.98004772 5 7 C5 7.66 5 8.32 5 9 C6.32 9.66 7.64 10.32 9 11 C9 11.99 9 12.98 9 14 C8.01 13.67 7.02 13.34 6 13 C6 12.34 6 11.68 6 11 C5.01 10.67 4.02 10.34 3 10 C3 9.01 3 8.02 3 7 C2.34 7 1.68 7 1 7 C0.67 4.69 0.34 2.38 0 0 Z " fill="#83888C" transform="translate(131,86)"/>
<path d="M0 0 C0.66 0 1.32 0 2 0 C2 4.29 2 8.58 2 13 C1.01 13.33 0.02 13.66 -1 14 C-0.67 9.38 -0.34 4.76 0 0 Z " fill="#080809" transform="translate(308,67)"/>
<path d="M0 0 C0.99 0.33 1.98 0.66 3 1 C3 3.64 3 6.28 3 9 C1.35 9.33 -0.3 9.66 -2 10 C-1.34 6.7 -0.68 3.4 0 0 Z " fill="#161616" transform="translate(214,190)"/>
<path d="M0 0 C0.99 0.33 1.98 0.66 3 1 C2.67 3.97 2.34 6.94 2 10 C0.02 10.33 -1.96 10.66 -4 11 C-3.34 10.67 -2.68 10.34 -2 10 C0.20731737 6.68902394 0.17754126 3.90590763 0 0 Z " fill="#050505" transform="translate(157,123)"/>
<path d="M0 0 C0.66 0 1.32 0 2 0 C1.62830496 2.63002402 1.2921315 3.74520369 -0.7421875 5.51953125 C-1.44601562 5.94621094 -2.14984375 6.37289062 -2.875 6.8125 C-3.92300781 7.47185547 -3.92300781 7.47185547 -4.9921875 8.14453125 C-7 9 -7 9 -10 8 C-8.87926138 7.16094435 -7.75325453 6.32892169 -6.625 5.5 C-5.99851562 5.0359375 -5.37203125 4.571875 -4.7265625 4.09375 C-3 3 -3 3 -1 3 C-0.67 2.01 -0.34 1.02 0 0 Z " fill="#151617" transform="translate(297,95)"/>
<path d="M0 0 C-3.16566573 2.11044382 -5.51197415 2.75552077 -9.1875 3.625 C-10.27417969 3.88539062 -11.36085937 4.14578125 -12.48046875 4.4140625 C-13.31191406 4.60742188 -14.14335937 4.80078125 -15 5 C-15 4.34 -15 3.68 -15 3 C-9.63560356 0.31780178 -5.98993047 -0.3152595 0 0 Z " fill="#C5CFD6" transform="translate(225,0)"/>
<path d="M0 0 C0.99 0 1.98 0 3 0 C3.3633218 6.41868512 3.3633218 6.41868512 1.75 9 C0 10 0 10 -2.1875 9.6875 C-2.785625 9.460625 -3.38375 9.23375 -4 9 C-3.34 8.443125 -2.68 7.88625 -2 7.3125 C0.25492211 5.15937692 0.25492211 5.15937692 0.25 2.25 C0.1675 1.5075 0.085 0.765 0 0 Z " fill="#0E0E0E" transform="translate(167,190)"/>
<path d="M0 0 C0.33 0 0.66 0 1 0 C0.67 2.64 0.34 5.28 0 8 C-2.64 8 -5.28 8 -8 8 C-7.13375 7.690625 -7.13375 7.690625 -6.25 7.375 C-3.19664942 5.50906354 -1.88605645 2.99167574 0 0 Z " fill="#0B0B0B" transform="translate(217,114)"/>
<path d="M0 0 C0 0.66 0 1.32 0 2 C-3.96 2.66 -7.92 3.32 -12 4 C-12 4.99 -12 5.98 -12 7 C-12.99 6.67 -13.98 6.34 -15 6 C-14.67 5.01 -14.34 4.02 -14 3 C-11.34765625 2.05078125 -11.34765625 2.05078125 -8.0625 1.3125 C-6.98097656 1.06113281 -5.89945313 0.80976563 -4.78515625 0.55078125 C-2 0 -2 0 0 0 Z " fill="#222121" transform="translate(114,157)"/>
<path d="M0 0 C0 0.99 0 1.98 0 3 C-0.66 3 -1.32 3 -2 3 C-2.33 3.99 -2.66 4.98 -3 6 C-3.99 6.66 -4.98 7.32 -6 8 C-6.99 7.67 -7.98 7.34 -9 7 C-7.88121617 5.82737096 -6.75476949 4.66204862 -5.625 3.5 C-4.68527344 2.52546875 -4.68527344 2.52546875 -3.7265625 1.53125 C-2 0 -2 0 0 0 Z " fill="#1A1818" transform="translate(273,130)"/>
<path d="M0 0 C1.32 0.33 2.64 0.66 4 1 C4.33 3.64 4.66 6.28 5 9 C4.01 9 3.02 9 2 9 C1.34 6.03 0.68 3.06 0 0 Z " fill="#121212" transform="translate(188,110)"/>
<path d="M0 0 C0.33 0 0.66 0 1 0 C0.67 2.64 0.34 5.28 0 8 C-1.32 8.33 -2.64 8.66 -4 9 C-3.52418802 7.68628013 -3.04424851 6.37405454 -2.5625 5.0625 C-2.29566406 4.33160156 -2.02882812 3.60070312 -1.75390625 2.84765625 C-1 1 -1 1 0 0 Z " fill="#050505" transform="translate(181,128)"/>
<path d="M0 0 C3 3.75 3 3.75 3 6 C-0.3 5.67 -3.6 5.34 -7 5 C-6.67 4.34 -6.34 3.68 -6 3 C-4.68 3 -3.36 3 -2 3 C-1.34 2.01 -0.68 1.02 0 0 Z " fill="#292828" transform="translate(131,134)"/>
<path d="M0 0 C0.66 0 1.32 0 2 0 C3.60355101 3.50776784 4.22036864 6.14354879 4 10 C3.01 10 2.02 10 1 10 C0.67 6.7 0.34 3.4 0 0 Z " fill="#000000" transform="translate(150,108)"/>
<path d="M0 0 C0.99 0.33 1.98 0.66 3 1 C3.33333333 2.33333333 3.66666667 3.66666667 4 5 C4.99 5.33 5.98 5.66 7 6 C7 6.66 7 7.32 7 8 C5.68 8 4.36 8 3 8 C1.92474806 5.34771188 0.90543849 2.71631546 0 0 Z " fill="#4F5356" transform="translate(295,44)"/>
<path d="M0 0 C0.99 0.33 1.98 0.66 3 1 C3 1.66 3 2.32 3 3 C3.66 3 4.32 3 5 3 C5 3.66 5 4.32 5 5 C4.34 5 3.68 5 3 5 C2.67 6.32 2.34 7.64 2 9 C0 2.25 0 2.25 0 0 Z " fill="#7D8386" transform="translate(260,7)"/>
<path d="M0 0 C0.99 0.33 1.98 0.66 3 1 C3 1.99 3 2.98 3 4 C2.34 4 1.68 4 1 4 C1 4.99 1 5.98 1 7 C0.01 7 -0.98 7 -2 7 C-1.34 4.69 -0.68 2.38 0 0 Z " fill="#090909" transform="translate(203,178)"/>
<path d="M0 0 C0 0.33 0 0.66 0 1 C-1.43344 1.53190541 -2.87195367 2.05015258 -4.3125 2.5625 C-5.51326172 2.99755859 -5.51326172 2.99755859 -6.73828125 3.44140625 C-9 4 -9 4 -12 3 C-8.2391768 -0.7608232 -5.0273023 -0.25136512 0 0 Z " fill="#141313" transform="translate(112,149)"/>
<path d="M0 0 C0.99 0.495 0.99 0.495 2 1 C2 1.66 2 2.32 2 3 C2.66 3 3.32 3 4 3 C3.67 4.98 3.34 6.96 3 9 C2.34 8.67 1.68 8.34 1 8 C0.40644386 5.35139573 0.25790731 2.70802678 0 0 Z " fill="#171616" transform="translate(386,137)"/>
<path d="M0 0 C0 1.65 0 3.3 0 5 C-2.375 5.625 -2.375 5.625 -5 6 C-5.66 5.34 -6.32 4.68 -7 4 C-5.68 4 -4.36 4 -3 4 C-3 3.01 -3 2.02 -3 1 C-1 0 -1 0 0 0 Z " fill="#191919" transform="translate(141,115)"/>
<path d="M0 0 C0.66 0.99 1.32 1.98 2 3 C1.3125 5.625 1.3125 5.625 0 8 C-0.99 8.33 -1.98 8.66 -3 9 C-3 8.01 -3 7.02 -3 6 C-2.34 6 -1.68 6 -1 6 C-0.67 4.02 -0.34 2.04 0 0 Z " fill="#B2BAC2" transform="translate(160,24)"/>
<path d="M0 0 C0.66 0 1.32 0 2 0 C3.41687119 4.25061356 2.19320039 6.71851625 1 11 C0.67 11 0.34 11 0 11 C0 7.37 0 3.74 0 0 Z " fill="#0B0B0B" transform="translate(348,164)"/>
<path d="M0 0 C0.33 0.99 0.66 1.98 1 3 C-0.25 4.5625 -0.25 4.5625 -2 6 C-4.1875 5.6875 -4.1875 5.6875 -6 5 C-5.01 4.67 -4.02 4.34 -3 4 C-2.67 3.01 -2.34 2.02 -2 1 C-1.34 0.67 -0.68 0.34 0 0 Z " fill="#1A1A1A" transform="translate(237,138)"/>
</svg>
